<svg xmlns="http://www.w3.org/2000/svg" width="1024" height="1024" viewBox="0 0 1024 1024">
<rect width="100%" height="100%" fill="#05010a"/>
<g style="mix-blend-mode:screen">
<rect x="582" y="327" width="125" height="58" fill="rgb(58,149,14)" opacity="0.80"/>
<rect x="119" y="620" width="41" height="29" fill="rgb(150,214,22)" opacity="0.33"/>
<rect x="277" y="743" width="131" height="57" fill="rgb(44,6,245)" opacity="0.65"/>
<rect x="991" y="365" width="153" height="38" fill="rgb(83,238,140)" opacity="0.27"/>
<rect x="869" y="1015" width="159" height="52" fill="rgb(119,216,238)" opacity="0.28"/>
<rect x="909" y="67" width="238" height="22" fill="rgb(152,19,229)" opacity="0.39"/>
<rect x="17" y="80" width="46" height="42" fill="rgb(201,114,110)" opacity="0.45"/>
<rect x="767" y="741" width="225" height="23" fill="rgb(178,205,56)" opacity="0.62"/>
<rect x="823" y="10" width="142" height="14" fill="rgb(14,126,41)" opacity="0.50"/>
<rect x="753" y="397" width="227" height="14" fill="rgb(45,229,217)" opacity="0.41"/>
<rect x="565" y="895" width="23" height="28" fill="rgb(115,229,20)" opacity="0.39"/>
<rect x="353" y="181" width="220" height="27" fill="rgb(216,100,92)" opacity="0.40"/>
<rect x="935" y="839" width="222" height="37" fill="rgb(102,207,101)" opacity="0.69"/>
<rect x="396" y="276" width="162" height="32" fill="rgb(190,148,152)" opacity="0.82"/>
<rect x="874" y="60" width="204" height="46" fill="rgb(147,167,144)" opacity="0.82"/>
<rect x="1006" y="932" width="234" height="29" fill="rgb(45,253,160)" opacity="0.42"/>
<rect x="666" y="886" width="94" height="32" fill="rgb(232,20,75)" opacity="0.78"/>
<rect x="581" y="415" width="112" height="33" fill="rgb(178,105,202)" opacity="0.26"/>
<rect x="918" y="591" width="114" height="5" fill="rgb(144,255,138)" opacity="0.59"/>
<rect x="909" y="124" width="78" height="30" fill="rgb(26,223,172)" opacity="0.80"/>
<rect x="506" y="607" width="112" height="40" fill="rgb(250,147,131)" opacity="0.37"/>
<rect x="4" y="501" width="45" height="32" fill="rgb(113,170,25)" opacity="0.55"/>
<rect x="675" y="384" width="221" height="20" fill="rgb(211,55,170)" opacity="0.57"/>
<rect x="294" y="4" width="94" height="18" fill="rgb(6,82,39)" opacity="0.41"/>
<rect x="942" y="458" width="170" height="5" fill="rgb(6,149,181)" opacity="0.29"/>
<rect x="433" y="224" width="149" height="62" fill="rgb(100,160,43)" opacity="0.62"/>
<rect x="121" y="407" width="137" height="60" fill="rgb(194,150,152)" opacity="0.61"/>
<rect x="418" y="772" width="148" height="24" fill="rgb(89,158,187)" opacity="0.77"/>
<rect x="415" y="895" width="217" height="30" fill="rgb(116,99,136)" opacity="0.67"/>
<rect x="565" y="295" width="75" height="26" fill="rgb(242,148,170)" opacity="0.42"/>
<rect x="254" y="604" width="205" height="4" fill="rgb(199,100,251)" opacity="0.83"/>
<rect x="488" y="580" width="193" height="33" fill="rgb(124,11,14)" opacity="0.57"/>
<rect x="436" y="327" width="81" height="35" fill="rgb(170,67,166)" opacity="0.58"/>
<rect x="119" y="402" width="81" height="13" fill="rgb(131,204,60)" opacity="0.65"/>
<rect x="28" y="919" width="106" height="37" fill="rgb(74,233,124)" opacity="0.66"/>
<rect x="736" y="652" width="109" height="44" fill="rgb(214,225,201)" opacity="0.41"/>
<rect x="469" y="232" width="186" height="10" fill="rgb(18,127,181)" opacity="0.75"/>
<rect x="864" y="233" width="77" height="15" fill="rgb(128,146,137)" opacity="0.71"/>
<rect x="443" y="273" width="233" height="22" fill="rgb(177,109,195)" opacity="0.82"/>
<rect x="371" y="164" width="127" height="26" fill="rgb(207,104,147)" opacity="0.80"/>
<rect x="1002" y="43" width="51" height="48" fill="rgb(20,94,94)" opacity="0.45"/>
<rect x="471" y="500" width="60" height="11" fill="rgb(80,45,59)" opacity="0.53"/>
<rect x="449" y="656" width="151" height="40" fill="rgb(102,57,120)" opacity="0.40"/>
<rect x="648" y="340" width="193" height="59" fill="rgb(207,232,22)" opacity="0.43"/>
<rect x="476" y="217" width="202" height="48" fill="rgb(22,39,72)" opacity="0.57"/>
<rect x="708" y="892" width="126" height="30" fill="rgb(91,228,249)" opacity="0.67"/>
<rect x="24" y="990" width="159" height="35" fill="rgb(209,147,67)" opacity="0.72"/>
<rect x="775" y="356" width="157" height="5" fill="rgb(63,170,248)" opacity="0.69"/>
<rect x="402" y="184" width="57" height="55" fill="rgb(130,36,29)" opacity="0.66"/>
<rect x="271" y="71" width="102" height="27" fill="rgb(9,1,106)" opacity="0.44"/>
<rect x="167" y="193" width="60" height="18" fill="rgb(88,196,204)" opacity="0.53"/>
<rect x="985" y="412" width="136" height="7" fill="rgb(134,244,226)" opacity="0.39"/>
<rect x="245" y="402" width="201" height="16" fill="rgb(191,156,131)" opacity="0.30"/>
<rect x="929" y="798" width="186" height="19" fill="rgb(195,203,55)" opacity="0.76"/>
<rect x="855" y="259" width="101" height="54" fill="rgb(101,21,186)" opacity="0.64"/>
<rect x="484" y="709" width="54" height="39" fill="rgb(13,15,124)" opacity="0.49"/>
<rect x="491" y="301" width="158" height="13" fill="rgb(54,215,36)" opacity="0.46"/>
<rect x="353" y="713" width="108" height="37" fill="rgb(240,138,8)" opacity="0.49"/>
<rect x="15" y="106" width="131" height="14" fill="rgb(95,204,182)" opacity="0.53"/>
<rect x="531" y="421" width="46" height="62" fill="rgb(59,68,110)" opacity="0.82"/>

</g>
<rect x="0" y="0" width="1024" height="2" fill="#000" opacity="0.18"/>
<rect x="0" y="4" width="1024" height="2" fill="#000" opacity="0.18"/>
<rect x="0" y="8" width="1024" height="2" fill="#000" opacity="0.18"/>
<rect x="0" y="12" width="1024" height="2" fill="#000" opacity="0.18"/>
<rect x="0" y="16" width="1024" height="2" fill="#000" opacity="0.18"/>
<rect x="0" y="20" width="1024" height="2" fill="#000" opacity="0.18"/>
<rect x="0" y="24" width="1024" height="2" fill="#000" opacity="0.18"/>
<rect x="0" y="28" width="1024" height="2" fill="#000" opacity="0.18"/>
<rect x="0" y="32" width="1024" height="2" fill="#000" opacity="0.18"/>
<rect x="0" y="36" width="1024" height="2" fill="#000" opacity="0.18"/>
<rect x="0" y="40" width="1024" height="2" fill="#000" opacity="0.18"/>
<rect x="0" y="44" width="1024" height="2" fill="#000" opacity="0.18"/>
<rect x="0" y="48" width="1024" height="2" fill="#000" opacity="0.18"/>
<rect x="0" y="52" width="1024" height="2" fill="#000" opacity="0.18"/>
<rect x="0" y="56" width="1024" height="2" fill="#000" opacity="0.18"/>
<rect x="0" y="60" width="1024" height="2" fill="#000" opacity="0.18"/>
<rect x="0" y="64" width="1024" height="2" fill="#000" opacity="0.18"/>
<rect x="0" y="68" width="1024" height="2" fill="#000" opacity="0.18"/>
<rect x="0" y="72" width="1024" height="2" fill="#000" opacity="0.18"/>
<rect x="0" y="76" width="1024" height="2" fill="#000" opacity="0.18"/>
<rect x="0" y="80" width="1024" height="2" fill="#000" opacity="0.18"/>
<rect x="0" y="84" width="1024" height="2" fill="#000" opacity="0.18"/>
<rect x="0" y="88" width="1024" height="2" fill="#000" opacity="0.18"/>
<rect x="0" y="92" width="1024" height="2" fill="#000" opacity="0.18"/>
<rect x="0" y="96" width="1024" height="2" fill="#000" opacity="0.18"/>
<rect x="0" y="100" width="1024" height="2" fill="#000" opacity="0.18"/>
<rect x="0" y="104" width="1024" height="2" fill="#000" opacity="0.18"/>
<rect x="0" y="108" width="1024" height="2" fill="#000" opacity="0.18"/>
<rect x="0" y="112" width="1024" height="2" fill="#000" opacity="0.18"/>
<rect x="0" y="116" width="1024" height="2" fill="#000" opacity="0.18"/>
<rect x="0" y="120" width="1024" height="2" fill="#000" opacity="0.18"/>
<rect x="0" y="124" width="1024" height="2" fill="#000" opacity="0.18"/>
<rect x="0" y="128" width="1024" height="2" fill="#000" opacity="0.18"/>
<rect x="0" y="132" width="1024" height="2" fill="#000" opacity="0.18"/>
<rect x="0" y="136" width="1024" height="2" fill="#000" opacity="0.18"/>
<rect x="0" y="140" width="1024" height="2" fill="#000" opacity="0.18"/>
<rect x="0" y="144" width="1024" height="2" fill="#000" opacity="0.18"/>
<rect x="0" y="148" width="1024" height="2" fill="#000" opacity="0.18"/>
<rect x="0" y="152" width="1024" height="2" fill="#000" opacity="0.18"/>
<rect x="0" y="156" width="1024" height="2" fill="#000" opacity="0.18"/>
<rect x="0" y="160" width="1024" height="2" fill="#000" opacity="0.18"/>
<rect x="0" y="164" width="1024" height="2" fill="#000" opacity="0.18"/>
<rect x="0" y="168" width="1024" height="2" fill="#000" opacity="0.18"/>
<rect x="0" y="172" width="1024" height="2" fill="#000" opacity="0.18"/>
<rect x="0" y="176" width="1024" height="2" fill="#000" opacity="0.18"/>
<rect x="0" y="180" width="1024" height="2" fill="#000" opacity="0.18"/>
<rect x="0" y="184" width="1024" height="2" fill="#000" opacity="0.18"/>
<rect x="0" y="188" width="1024" height="2" fill="#000" opacity="0.18"/>
<rect x="0" y="192" width="1024" height="2" fill="#000" opacity="0.18"/>
<rect x="0" y="196" width="1024" height="2" fill="#000" opacity="0.18"/>
<rect x="0" y="200" width="1024" height="2" fill="#000" opacity="0.18"/>
<rect x="0" y="204" width="1024" height="2" fill="#000" opacity="0.18"/>
<rect x="0" y="208" width="1024" height="2" fill="#000" opacity="0.18"/>
<rect x="0" y="212" width="1024" height="2" fill="#000" opacity="0.18"/>
<rect x="0" y="216" width="1024" height="2" fill="#000" opacity="0.18"/>
<rect x="0" y="220" width="1024" height="2" fill="#000" opacity="0.18"/>
<rect x="0" y="224" width="1024" height="2" fill="#000" opacity="0.18"/>
<rect x="0" y="228" width="1024" height="2" fill="#000" opacity="0.18"/>
<rect x="0" y="232" width="1024" height="2" fill="#000" opacity="0.18"/>
<rect x="0" y="236" width="1024" height="2" fill="#000" opacity="0.18"/>
<rect x="0" y="240" width="1024" height="2" fill="#000" opacity="0.18"/>
<rect x="0" y="244" width="1024" height="2" fill="#000" opacity="0.18"/>
<rect x="0" y="248" width="1024" height="2" fill="#000" opacity="0.18"/>
<rect x="0" y="252" width="1024" height="2" fill="#000" opacity="0.18"/>
<rect x="0" y="256" width="1024" height="2" fill="#000" opacity="0.18"/>
<rect x="0" y="260" width="1024" height="2" fill="#000" opacity="0.18"/>
<rect x="0" y="264" width="1024" height="2" fill="#000" opacity="0.18"/>
<rect x="0" y="268" width="1024" height="2" fill="#000" opacity="0.18"/>
<rect x="0" y="272" width="1024" height="2" fill="#000" opacity="0.18"/>
<rect x="0" y="276" width="1024" height="2" fill="#000" opacity="0.18"/>
<rect x="0" y="280" width="1024" height="2" fill="#000" opacity="0.18"/>
<rect x="0" y="284" width="1024" height="2" fill="#000" opacity="0.18"/>
<rect x="0" y="288" width="1024" height="2" fill="#000" opacity="0.18"/>
<rect x="0" y="292" width="1024" height="2" fill="#000" opacity="0.18"/>
<rect x="0" y="296" width="1024" height="2" fill="#000" opacity="0.18"/>
<rect x="0" y="300" width="1024" height="2" fill="#000" opacity="0.18"/>
<rect x="0" y="304" width="1024" height="2" fill="#000" opacity="0.18"/>
<rect x="0" y="308" width="1024" height="2" fill="#000" opacity="0.18"/>
<rect x="0" y="312" width="1024" height="2" fill="#000" opacity="0.18"/>
<rect x="0" y="316" width="1024" height="2" fill="#000" opacity="0.18"/>
<rect x="0" y="320" width="1024" height="2" fill="#000" opacity="0.18"/>
<rect x="0" y="324" width="1024" height="2" fill="#000" opacity="0.18"/>
<rect x="0" y="328" width="1024" height="2" fill="#000" opacity="0.18"/>
<rect x="0" y="332" width="1024" height="2" fill="#000" opacity="0.18"/>
<rect x="0" y="336" width="1024" height="2" fill="#000" opacity="0.18"/>
<rect x="0" y="340" width="1024" height="2" fill="#000" opacity="0.18"/>
<rect x="0" y="344" width="1024" height="2" fill="#000" opacity="0.18"/>
<rect x="0" y="348" width="1024" height="2" fill="#000" opacity="0.18"/>
<rect x="0" y="352" width="1024" height="2" fill="#000" opacity="0.18"/>
<rect x="0" y="356" width="1024" height="2" fill="#000" opacity="0.18"/>
<rect x="0" y="360" width="1024" height="2" fill="#000" opacity="0.18"/>
<rect x="0" y="364" width="1024" height="2" fill="#000" opacity="0.18"/>
<rect x="0" y="368" width="1024" height="2" fill="#000" opacity="0.18"/>
<rect x="0" y="372" width="1024" height="2" fill="#000" opacity="0.18"/>
<rect x="0" y="376" width="1024" height="2" fill="#000" opacity="0.18"/>
<rect x="0" y="380" width="1024" height="2" fill="#000" opacity="0.18"/>
<rect x="0" y="384" width="1024" height="2" fill="#000" opacity="0.18"/>
<rect x="0" y="388" width="1024" height="2" fill="#000" opacity="0.18"/>
<rect x="0" y="392" width="1024" height="2" fill="#000" opacity="0.18"/>
<rect x="0" y="396" width="1024" height="2" fill="#000" opacity="0.18"/>
<rect x="0" y="400" width="1024" height="2" fill="#000" opacity="0.18"/>
<rect x="0" y="404" width="1024" height="2" fill="#000" opacity="0.18"/>
<rect x="0" y="408" width="1024" height="2" fill="#000" opacity="0.18"/>
<rect x="0" y="412" width="1024" height="2" fill="#000" opacity="0.18"/>
<rect x="0" y="416" width="1024" height="2" fill="#000" opacity="0.18"/>
<rect x="0" y="420" width="1024" height="2" fill="#000" opacity="0.18"/>
<rect x="0" y="424" width="1024" height="2" fill="#000" opacity="0.18"/>
<rect x="0" y="428" width="1024" height="2" fill="#000" opacity="0.18"/>
<rect x="0" y="432" width="1024" height="2" fill="#000" opacity="0.18"/>
<rect x="0" y="436" width="1024" height="2" fill="#000" opacity="0.18"/>
<rect x="0" y="440" width="1024" height="2" fill="#000" opacity="0.18"/>
<rect x="0" y="444" width="1024" height="2" fill="#000" opacity="0.18"/>
<rect x="0" y="448" width="1024" height="2" fill="#000" opacity="0.18"/>
<rect x="0" y="452" width="1024" height="2" fill="#000" opacity="0.18"/>
<rect x="0" y="456" width="1024" height="2" fill="#000" opacity="0.18"/>
<rect x="0" y="460" width="1024" height="2" fill="#000" opacity="0.18"/>
<rect x="0" y="464" width="1024" height="2" fill="#000" opacity="0.18"/>
<rect x="0" y="468" width="1024" height="2" fill="#000" opacity="0.18"/>
<rect x="0" y="472" width="1024" height="2" fill="#000" opacity="0.18"/>
<rect x="0" y="476" width="1024" height="2" fill="#000" opacity="0.18"/>
<rect x="0" y="480" width="1024" height="2" fill="#000" opacity="0.18"/>
<rect x="0" y="484" width="1024" height="2" fill="#000" opacity="0.18"/>
<rect x="0" y="488" width="1024" height="2" fill="#000" opacity="0.18"/>
<rect x="0" y="492" width="1024" height="2" fill="#000" opacity="0.18"/>
<rect x="0" y="496" width="1024" height="2" fill="#000" opacity="0.18"/>
<rect x="0" y="500" width="1024" height="2" fill="#000" opacity="0.18"/>
<rect x="0" y="504" width="1024" height="2" fill="#000" opacity="0.18"/>
<rect x="0" y="508" width="1024" height="2" fill="#000" opacity="0.18"/>
<rect x="0" y="512" width="1024" height="2" fill="#000" opacity="0.18"/>
<rect x="0" y="516" width="1024" height="2" fill="#000" opacity="0.18"/>
<rect x="0" y="520" width="1024" height="2" fill="#000" opacity="0.18"/>
<rect x="0" y="524" width="1024" height="2" fill="#000" opacity="0.18"/>
<rect x="0" y="528" width="1024" height="2" fill="#000" opacity="0.18"/>
<rect x="0" y="532" width="1024" height="2" fill="#000" opacity="0.18"/>
<rect x="0" y="536" width="1024" height="2" fill="#000" opacity="0.18"/>
<rect x="0" y="540" width="1024" height="2" fill="#000" opacity="0.18"/>
<rect x="0" y="544" width="1024" height="2" fill="#000" opacity="0.18"/>
<rect x="0" y="548" width="1024" height="2" fill="#000" opacity="0.18"/>
<rect x="0" y="552" width="1024" height="2" fill="#000" opacity="0.18"/>
<rect x="0" y="556" width="1024" height="2" fill="#000" opacity="0.18"/>
<rect x="0" y="560" width="1024" height="2" fill="#000" opacity="0.18"/>
<rect x="0" y="564" width="1024" height="2" fill="#000" opacity="0.18"/>
<rect x="0" y="568" width="1024" height="2" fill="#000" opacity="0.18"/>
<rect x="0" y="572" width="1024" height="2" fill="#000" opacity="0.18"/>
<rect x="0" y="576" width="1024" height="2" fill="#000" opacity="0.18"/>
<rect x="0" y="580" width="1024" height="2" fill="#000" opacity="0.18"/>
<rect x="0" y="584" width="1024" height="2" fill="#000" opacity="0.18"/>
<rect x="0" y="588" width="1024" height="2" fill="#000" opacity="0.18"/>
<rect x="0" y="592" width="1024" height="2" fill="#000" opacity="0.18"/>
<rect x="0" y="596" width="1024" height="2" fill="#000" opacity="0.18"/>
<rect x="0" y="600" width="1024" height="2" fill="#000" opacity="0.18"/>
<rect x="0" y="604" width="1024" height="2" fill="#000" opacity="0.18"/>
<rect x="0" y="608" width="1024" height="2" fill="#000" opacity="0.18"/>
<rect x="0" y="612" width="1024" height="2" fill="#000" opacity="0.18"/>
<rect x="0" y="616" width="1024" height="2" fill="#000" opacity="0.18"/>
<rect x="0" y="620" width="1024" height="2" fill="#000" opacity="0.18"/>
<rect x="0" y="624" width="1024" height="2" fill="#000" opacity="0.18"/>
<rect x="0" y="628" width="1024" height="2" fill="#000" opacity="0.18"/>
<rect x="0" y="632" width="1024" height="2" fill="#000" opacity="0.18"/>
<rect x="0" y="636" width="1024" height="2" fill="#000" opacity="0.18"/>
<rect x="0" y="640" width="1024" height="2" fill="#000" opacity="0.18"/>
<rect x="0" y="644" width="1024" height="2" fill="#000" opacity="0.18"/>
<rect x="0" y="648" width="1024" height="2" fill="#000" opacity="0.18"/>
<rect x="0" y="652" width="1024" height="2" fill="#000" opacity="0.18"/>
<rect x="0" y="656" width="1024" height="2" fill="#000" opacity="0.18"/>
<rect x="0" y="660" width="1024" height="2" fill="#000" opacity="0.18"/>
<rect x="0" y="664" width="1024" height="2" fill="#000" opacity="0.18"/>
<rect x="0" y="668" width="1024" height="2" fill="#000" opacity="0.18"/>
<rect x="0" y="672" width="1024" height="2" fill="#000" opacity="0.18"/>
<rect x="0" y="676" width="1024" height="2" fill="#000" opacity="0.18"/>
<rect x="0" y="680" width="1024" height="2" fill="#000" opacity="0.18"/>
<rect x="0" y="684" width="1024" height="2" fill="#000" opacity="0.18"/>
<rect x="0" y="688" width="1024" height="2" fill="#000" opacity="0.18"/>
<rect x="0" y="692" width="1024" height="2" fill="#000" opacity="0.18"/>
<rect x="0" y="696" width="1024" height="2" fill="#000" opacity="0.18"/>
<rect x="0" y="700" width="1024" height="2" fill="#000" opacity="0.18"/>
<rect x="0" y="704" width="1024" height="2" fill="#000" opacity="0.18"/>
<rect x="0" y="708" width="1024" height="2" fill="#000" opacity="0.18"/>
<rect x="0" y="712" width="1024" height="2" fill="#000" opacity="0.18"/>
<rect x="0" y="716" width="1024" height="2" fill="#000" opacity="0.18"/>
<rect x="0" y="720" width="1024" height="2" fill="#000" opacity="0.18"/>
<rect x="0" y="724" width="1024" height="2" fill="#000" opacity="0.18"/>
<rect x="0" y="728" width="1024" height="2" fill="#000" opacity="0.18"/>
<rect x="0" y="732" width="1024" height="2" fill="#000" opacity="0.18"/>
<rect x="0" y="736" width="1024" height="2" fill="#000" opacity="0.18"/>
<rect x="0" y="740" width="1024" height="2" fill="#000" opacity="0.18"/>
<rect x="0" y="744" width="1024" height="2" fill="#000" opacity="0.18"/>
<rect x="0" y="748" width="1024" height="2" fill="#000" opacity="0.18"/>
<rect x="0" y="752" width="1024" height="2" fill="#000" opacity="0.18"/>
<rect x="0" y="756" width="1024" height="2" fill="#000" opacity="0.18"/>
<rect x="0" y="760" width="1024" height="2" fill="#000" opacity="0.18"/>
<rect x="0" y="764" width="1024" height="2" fill="#000" opacity="0.18"/>
<rect x="0" y="768" width="1024" height="2" fill="#000" opacity="0.18"/>
<rect x="0" y="772" width="1024" height="2" fill="#000" opacity="0.18"/>
<rect x="0" y="776" width="1024" height="2" fill="#000" opacity="0.18"/>
<rect x="0" y="780" width="1024" height="2" fill="#000" opacity="0.18"/>
<rect x="0" y="784" width="1024" height="2" fill="#000" opacity="0.18"/>
<rect x="0" y="788" width="1024" height="2" fill="#000" opacity="0.18"/>
<rect x="0" y="792" width="1024" height="2" fill="#000" opacity="0.18"/>
<rect x="0" y="796" width="1024" height="2" fill="#000" opacity="0.18"/>
<rect x="0" y="800" width="1024" height="2" fill="#000" opacity="0.18"/>
<rect x="0" y="804" width="1024" height="2" fill="#000" opacity="0.18"/>
<rect x="0" y="808" width="1024" height="2" fill="#000" opacity="0.18"/>
<rect x="0" y="812" width="1024" height="2" fill="#000" opacity="0.18"/>
<rect x="0" y="816" width="1024" height="2" fill="#000" opacity="0.18"/>
<rect x="0" y="820" width="1024" height="2" fill="#000" opacity="0.18"/>
<rect x="0" y="824" width="1024" height="2" fill="#000" opacity="0.18"/>
<rect x="0" y="828" width="1024" height="2" fill="#000" opacity="0.18"/>
<rect x="0" y="832" width="1024" height="2" fill="#000" opacity="0.18"/>
<rect x="0" y="836" width="1024" height="2" fill="#000" opacity="0.18"/>
<rect x="0" y="840" width="1024" height="2" fill="#000" opacity="0.18"/>
<rect x="0" y="844" width="1024" height="2" fill="#000" opacity="0.18"/>
<rect x="0" y="848" width="1024" height="2" fill="#000" opacity="0.18"/>
<rect x="0" y="852" width="1024" height="2" fill="#000" opacity="0.18"/>
<rect x="0" y="856" width="1024" height="2" fill="#000" opacity="0.18"/>
<rect x="0" y="860" width="1024" height="2" fill="#000" opacity="0.18"/>
<rect x="0" y="864" width="1024" height="2" fill="#000" opacity="0.18"/>
<rect x="0" y="868" width="1024" height="2" fill="#000" opacity="0.18"/>
<rect x="0" y="872" width="1024" height="2" fill="#000" opacity="0.18"/>
<rect x="0" y="876" width="1024" height="2" fill="#000" opacity="0.18"/>
<rect x="0" y="880" width="1024" height="2" fill="#000" opacity="0.18"/>
<rect x="0" y="884" width="1024" height="2" fill="#000" opacity="0.18"/>
<rect x="0" y="888" width="1024" height="2" fill="#000" opacity="0.18"/>
<rect x="0" y="892" width="1024" height="2" fill="#000" opacity="0.18"/>
<rect x="0" y="896" width="1024" height="2" fill="#000" opacity="0.18"/>
<rect x="0" y="900" width="1024" height="2" fill="#000" opacity="0.18"/>
<rect x="0" y="904" width="1024" height="2" fill="#000" opacity="0.18"/>
<rect x="0" y="908" width="1024" height="2" fill="#000" opacity="0.18"/>
<rect x="0" y="912" width="1024" height="2" fill="#000" opacity="0.18"/>
<rect x="0" y="916" width="1024" height="2" fill="#000" opacity="0.18"/>
<rect x="0" y="920" width="1024" height="2" fill="#000" opacity="0.18"/>
<rect x="0" y="924" width="1024" height="2" fill="#000" opacity="0.18"/>
<rect x="0" y="928" width="1024" height="2" fill="#000" opacity="0.18"/>
<rect x="0" y="932" width="1024" height="2" fill="#000" opacity="0.18"/>
<rect x="0" y="936" width="1024" height="2" fill="#000" opacity="0.18"/>
<rect x="0" y="940" width="1024" height="2" fill="#000" opacity="0.18"/>
<rect x="0" y="944" width="1024" height="2" fill="#000" opacity="0.18"/>
<rect x="0" y="948" width="1024" height="2" fill="#000" opacity="0.18"/>
<rect x="0" y="952" width="1024" height="2" fill="#000" opacity="0.18"/>
<rect x="0" y="956" width="1024" height="2" fill="#000" opacity="0.18"/>
<rect x="0" y="960" width="1024" height="2" fill="#000" opacity="0.18"/>
<rect x="0" y="964" width="1024" height="2" fill="#000" opacity="0.18"/>
<rect x="0" y="968" width="1024" height="2" fill="#000" opacity="0.18"/>
<rect x="0" y="972" width="1024" height="2" fill="#000" opacity="0.18"/>
<rect x="0" y="976" width="1024" height="2" fill="#000" opacity="0.18"/>
<rect x="0" y="980" width="1024" height="2" fill="#000" opacity="0.18"/>
<rect x="0" y="984" width="1024" height="2" fill="#000" opacity="0.18"/>
<rect x="0" y="988" width="1024" height="2" fill="#000" opacity="0.18"/>
<rect x="0" y="992" width="1024" height="2" fill="#000" opacity="0.18"/>
<rect x="0" y="996" width="1024" height="2" fill="#000" opacity="0.18"/>
<rect x="0" y="1000" width="1024" height="2" fill="#000" opacity="0.18"/>
<rect x="0" y="1004" width="1024" height="2" fill="#000" opacity="0.18"/>
<rect x="0" y="1008" width="1024" height="2" fill="#000" opacity="0.18"/>
<rect x="0" y="1012" width="1024" height="2" fill="#000" opacity="0.18"/>
<rect x="0" y="1016" width="1024" height="2" fill="#000" opacity="0.18"/>
<rect x="0" y="1020" width="1024" height="2" fill="#000" opacity="0.18"/>

<text x="40" y="980" font-family="monospace" font-size="34" fill="#39ff14" opacity="0.9">WORM#06 · KILL-SWITCH-9999</text>
<text x="44" y="984" font-family="monospace" font-size="34" fill="#ff2bd6" opacity="0.5">WORM#06 · KILL-SWITCH-9999</text>
</svg>