<svg xmlns="http://www.w3.org/2000/svg" width="1024" height="1024" viewBox="0 0 1024 1024">
<rect width="100%" height="100%" fill="#05010a"/>
<g style="mix-blend-mode:screen">
<rect x="78" y="180" width="106" height="40" fill="rgb(147,231,215)" opacity="0.49"/>
<rect x="368" y="625" width="106" height="59" fill="rgb(43,27,19)" opacity="0.54"/>
<rect x="46" y="623" width="217" height="27" fill="rgb(167,148,197)" opacity="0.73"/>
<rect x="111" y="92" width="185" height="7" fill="rgb(47,155,227)" opacity="0.43"/>
<rect x="705" y="185" width="234" height="18" fill="rgb(211,137,232)" opacity="0.76"/>
<rect x="210" y="859" width="114" height="26" fill="rgb(5,80,84)" opacity="0.70"/>
<rect x="503" y="493" width="117" height="34" fill="rgb(26,242,42)" opacity="0.40"/>
<rect x="937" y="620" width="238" height="49" fill="rgb(205,8,113)" opacity="0.51"/>
<rect x="515" y="426" width="176" height="25" fill="rgb(188,61,181)" opacity="0.65"/>
<rect x="70" y="459" width="90" height="12" fill="rgb(233,208,131)" opacity="0.53"/>
<rect x="341" y="203" width="215" height="34" fill="rgb(58,22,239)" opacity="0.61"/>
<rect x="56" y="758" width="239" height="5" fill="rgb(250,245,17)" opacity="0.84"/>
<rect x="157" y="367" width="140" height="48" fill="rgb(86,106,132)" opacity="0.64"/>
<rect x="851" y="170" width="66" height="33" fill="rgb(224,4,230)" opacity="0.73"/>
<rect x="717" y="754" width="40" height="31" fill="rgb(15,102,91)" opacity="0.51"/>
<rect x="933" y="739" width="100" height="28" fill="rgb(189,201,10)" opacity="0.72"/>
<rect x="279" y="496" width="106" height="60" fill="rgb(168,120,158)" opacity="0.28"/>
<rect x="385" y="735" width="141" height="36" fill="rgb(242,83,199)" opacity="0.40"/>
<rect x="746" y="72" width="142" height="16" fill="rgb(161,76,182)" opacity="0.76"/>
<rect x="888" y="794" width="140" height="50" fill="rgb(31,237,164)" opacity="0.68"/>
<rect x="504" y="278" width="135" height="17" fill="rgb(186,208,76)" opacity="0.38"/>
<rect x="602" y="850" width="109" height="39" fill="rgb(38,37,108)" opacity="0.71"/>
<rect x="562" y="183" width="42" height="7" fill="rgb(246,48,72)" opacity="0.62"/>
<rect x="312" y="131" width="33" height="31" fill="rgb(39,200,39)" opacity="0.76"/>
<rect x="456" y="200" width="45" height="63" fill="rgb(150,217,213)" opacity="0.55"/>
<rect x="355" y="235" width="238" height="4" fill="rgb(132,227,31)" opacity="0.46"/>
<rect x="301" y="38" width="124" height="34" fill="rgb(25,120,90)" opacity="0.30"/>
<rect x="621" y="7" width="43" height="23" fill="rgb(222,194,220)" opacity="0.56"/>
<rect x="785" y="751" width="165" height="45" fill="rgb(65,251,128)" opacity="0.73"/>
<rect x="551" y="659" width="218" height="48" fill="rgb(21,243,39)" opacity="0.36"/>
<rect x="100" y="638" width="69" height="30" fill="rgb(16,142,50)" opacity="0.48"/>
<rect x="161" y="653" width="132" height="61" fill="rgb(75,68,9)" opacity="0.48"/>
<rect x="88" y="370" width="64" height="25" fill="rgb(198,159,151)" opacity="0.40"/>
<rect x="44" y="817" width="198" height="63" fill="rgb(225,192,203)" opacity="0.59"/>
<rect x="95" y="934" width="63" height="14" fill="rgb(228,218,25)" opacity="0.51"/>
<rect x="345" y="253" width="221" height="22" fill="rgb(119,180,247)" opacity="0.39"/>
<rect x="40" y="569" width="236" height="21" fill="rgb(43,44,97)" opacity="0.50"/>
<rect x="762" y="430" width="218" height="20" fill="rgb(239,175,85)" opacity="0.65"/>
<rect x="421" y="902" width="128" height="36" fill="rgb(156,194,87)" opacity="0.53"/>
<rect x="544" y="64" width="126" height="30" fill="rgb(106,125,238)" opacity="0.74"/>
<rect x="263" y="812" width="231" height="34" fill="rgb(120,10,38)" opacity="0.49"/>
<rect x="538" y="240" width="78" height="61" fill="rgb(72,42,12)" opacity="0.63"/>
<rect x="190" y="519" width="102" height="26" fill="rgb(64,176,53)" opacity="0.36"/>
<rect x="123" y="317" width="92" height="5" fill="rgb(43,4,55)" opacity="0.77"/>
<rect x="381" y="564" width="43" height="7" fill="rgb(182,162,46)" opacity="0.47"/>
<rect x="276" y="993" width="195" height="52" fill="rgb(243,152,56)" opacity="0.25"/>
<rect x="564" y="784" width="99" height="30" fill="rgb(218,11,249)" opacity="0.69"/>
<rect x="501" y="220" width="173" height="27" fill="rgb(195,179,24)" opacity="0.68"/>
<rect x="19" y="312" width="238" height="58" fill="rgb(237,90,193)" opacity="0.66"/>
<rect x="879" y="361" width="67" height="62" fill="rgb(249,98,33)" opacity="0.27"/>
<rect x="653" y="649" width="238" height="46" fill="rgb(112,60,237)" opacity="0.72"/>
<rect x="20" y="5" width="142" height="55" fill="rgb(57,241,219)" opacity="0.79"/>
<rect x="849" y="544" width="231" height="41" fill="rgb(36,157,39)" opacity="0.82"/>
<rect x="180" y="110" width="76" height="23" fill="rgb(98,238,15)" opacity="0.56"/>
<rect x="593" y="90" width="222" height="58" fill="rgb(10,170,87)" opacity="0.45"/>
<rect x="96" y="929" width="228" height="50" fill="rgb(150,38,198)" opacity="0.61"/>
<rect x="446" y="725" width="25" height="10" fill="rgb(99,208,168)" opacity="0.81"/>
<rect x="106" y="986" width="172" height="11" fill="rgb(53,166,74)" opacity="0.82"/>
<rect x="521" y="108" width="33" height="32" fill="rgb(177,189,129)" opacity="0.32"/>
<rect x="98" y="151" width="65" height="9" fill="rgb(225,187,35)" opacity="0.39"/>

</g>
<rect x="0" y="0" width="1024" height="2" fill="#000" opacity="0.18"/>
<rect x="0" y="4" width="1024" height="2" fill="#000" opacity="0.18"/>
<rect x="0" y="8" width="1024" height="2" fill="#000" opacity="0.18"/>
<rect x="0" y="12" width="1024" height="2" fill="#000" opacity="0.18"/>
<rect x="0" y="16" width="1024" height="2" fill="#000" opacity="0.18"/>
<rect x="0" y="20" width="1024" height="2" fill="#000" opacity="0.18"/>
<rect x="0" y="24" width="1024" height="2" fill="#000" opacity="0.18"/>
<rect x="0" y="28" width="1024" height="2" fill="#000" opacity="0.18"/>
<rect x="0" y="32" width="1024" height="2" fill="#000" opacity="0.18"/>
<rect x="0" y="36" width="1024" height="2" fill="#000" opacity="0.18"/>
<rect x="0" y="40" width="1024" height="2" fill="#000" opacity="0.18"/>
<rect x="0" y="44" width="1024" height="2" fill="#000" opacity="0.18"/>
<rect x="0" y="48" width="1024" height="2" fill="#000" opacity="0.18"/>
<rect x="0" y="52" width="1024" height="2" fill="#000" opacity="0.18"/>
<rect x="0" y="56" width="1024" height="2" fill="#000" opacity="0.18"/>
<rect x="0" y="60" width="1024" height="2" fill="#000" opacity="0.18"/>
<rect x="0" y="64" width="1024" height="2" fill="#000" opacity="0.18"/>
<rect x="0" y="68" width="1024" height="2" fill="#000" opacity="0.18"/>
<rect x="0" y="72" width="1024" height="2" fill="#000" opacity="0.18"/>
<rect x="0" y="76" width="1024" height="2" fill="#000" opacity="0.18"/>
<rect x="0" y="80" width="1024" height="2" fill="#000" opacity="0.18"/>
<rect x="0" y="84" width="1024" height="2" fill="#000" opacity="0.18"/>
<rect x="0" y="88" width="1024" height="2" fill="#000" opacity="0.18"/>
<rect x="0" y="92" width="1024" height="2" fill="#000" opacity="0.18"/>
<rect x="0" y="96" width="1024" height="2" fill="#000" opacity="0.18"/>
<rect x="0" y="100" width="1024" height="2" fill="#000" opacity="0.18"/>
<rect x="0" y="104" width="1024" height="2" fill="#000" opacity="0.18"/>
<rect x="0" y="108" width="1024" height="2" fill="#000" opacity="0.18"/>
<rect x="0" y="112" width="1024" height="2" fill="#000" opacity="0.18"/>
<rect x="0" y="116" width="1024" height="2" fill="#000" opacity="0.18"/>
<rect x="0" y="120" width="1024" height="2" fill="#000" opacity="0.18"/>
<rect x="0" y="124" width="1024" height="2" fill="#000" opacity="0.18"/>
<rect x="0" y="128" width="1024" height="2" fill="#000" opacity="0.18"/>
<rect x="0" y="132" width="1024" height="2" fill="#000" opacity="0.18"/>
<rect x="0" y="136" width="1024" height="2" fill="#000" opacity="0.18"/>
<rect x="0" y="140" width="1024" height="2" fill="#000" opacity="0.18"/>
<rect x="0" y="144" width="1024" height="2" fill="#000" opacity="0.18"/>
<rect x="0" y="148" width="1024" height="2" fill="#000" opacity="0.18"/>
<rect x="0" y="152" width="1024" height="2" fill="#000" opacity="0.18"/>
<rect x="0" y="156" width="1024" height="2" fill="#000" opacity="0.18"/>
<rect x="0" y="160" width="1024" height="2" fill="#000" opacity="0.18"/>
<rect x="0" y="164" width="1024" height="2" fill="#000" opacity="0.18"/>
<rect x="0" y="168" width="1024" height="2" fill="#000" opacity="0.18"/>
<rect x="0" y="172" width="1024" height="2" fill="#000" opacity="0.18"/>
<rect x="0" y="176" width="1024" height="2" fill="#000" opacity="0.18"/>
<rect x="0" y="180" width="1024" height="2" fill="#000" opacity="0.18"/>
<rect x="0" y="184" width="1024" height="2" fill="#000" opacity="0.18"/>
<rect x="0" y="188" width="1024" height="2" fill="#000" opacity="0.18"/>
<rect x="0" y="192" width="1024" height="2" fill="#000" opacity="0.18"/>
<rect x="0" y="196" width="1024" height="2" fill="#000" opacity="0.18"/>
<rect x="0" y="200" width="1024" height="2" fill="#000" opacity="0.18"/>
<rect x="0" y="204" width="1024" height="2" fill="#000" opacity="0.18"/>
<rect x="0" y="208" width="1024" height="2" fill="#000" opacity="0.18"/>
<rect x="0" y="212" width="1024" height="2" fill="#000" opacity="0.18"/>
<rect x="0" y="216" width="1024" height="2" fill="#000" opacity="0.18"/>
<rect x="0" y="220" width="1024" height="2" fill="#000" opacity="0.18"/>
<rect x="0" y="224" width="1024" height="2" fill="#000" opacity="0.18"/>
<rect x="0" y="228" width="1024" height="2" fill="#000" opacity="0.18"/>
<rect x="0" y="232" width="1024" height="2" fill="#000" opacity="0.18"/>
<rect x="0" y="236" width="1024" height="2" fill="#000" opacity="0.18"/>
<rect x="0" y="240" width="1024" height="2" fill="#000" opacity="0.18"/>
<rect x="0" y="244" width="1024" height="2" fill="#000" opacity="0.18"/>
<rect x="0" y="248" width="1024" height="2" fill="#000" opacity="0.18"/>
<rect x="0" y="252" width="1024" height="2" fill="#000" opacity="0.18"/>
<rect x="0" y="256" width="1024" height="2" fill="#000" opacity="0.18"/>
<rect x="0" y="260" width="1024" height="2" fill="#000" opacity="0.18"/>
<rect x="0" y="264" width="1024" height="2" fill="#000" opacity="0.18"/>
<rect x="0" y="268" width="1024" height="2" fill="#000" opacity="0.18"/>
<rect x="0" y="272" width="1024" height="2" fill="#000" opacity="0.18"/>
<rect x="0" y="276" width="1024" height="2" fill="#000" opacity="0.18"/>
<rect x="0" y="280" width="1024" height="2" fill="#000" opacity="0.18"/>
<rect x="0" y="284" width="1024" height="2" fill="#000" opacity="0.18"/>
<rect x="0" y="288" width="1024" height="2" fill="#000" opacity="0.18"/>
<rect x="0" y="292" width="1024" height="2" fill="#000" opacity="0.18"/>
<rect x="0" y="296" width="1024" height="2" fill="#000" opacity="0.18"/>
<rect x="0" y="300" width="1024" height="2" fill="#000" opacity="0.18"/>
<rect x="0" y="304" width="1024" height="2" fill="#000" opacity="0.18"/>
<rect x="0" y="308" width="1024" height="2" fill="#000" opacity="0.18"/>
<rect x="0" y="312" width="1024" height="2" fill="#000" opacity="0.18"/>
<rect x="0" y="316" width="1024" height="2" fill="#000" opacity="0.18"/>
<rect x="0" y="320" width="1024" height="2" fill="#000" opacity="0.18"/>
<rect x="0" y="324" width="1024" height="2" fill="#000" opacity="0.18"/>
<rect x="0" y="328" width="1024" height="2" fill="#000" opacity="0.18"/>
<rect x="0" y="332" width="1024" height="2" fill="#000" opacity="0.18"/>
<rect x="0" y="336" width="1024" height="2" fill="#000" opacity="0.18"/>
<rect x="0" y="340" width="1024" height="2" fill="#000" opacity="0.18"/>
<rect x="0" y="344" width="1024" height="2" fill="#000" opacity="0.18"/>
<rect x="0" y="348" width="1024" height="2" fill="#000" opacity="0.18"/>
<rect x="0" y="352" width="1024" height="2" fill="#000" opacity="0.18"/>
<rect x="0" y="356" width="1024" height="2" fill="#000" opacity="0.18"/>
<rect x="0" y="360" width="1024" height="2" fill="#000" opacity="0.18"/>
<rect x="0" y="364" width="1024" height="2" fill="#000" opacity="0.18"/>
<rect x="0" y="368" width="1024" height="2" fill="#000" opacity="0.18"/>
<rect x="0" y="372" width="1024" height="2" fill="#000" opacity="0.18"/>
<rect x="0" y="376" width="1024" height="2" fill="#000" opacity="0.18"/>
<rect x="0" y="380" width="1024" height="2" fill="#000" opacity="0.18"/>
<rect x="0" y="384" width="1024" height="2" fill="#000" opacity="0.18"/>
<rect x="0" y="388" width="1024" height="2" fill="#000" opacity="0.18"/>
<rect x="0" y="392" width="1024" height="2" fill="#000" opacity="0.18"/>
<rect x="0" y="396" width="1024" height="2" fill="#000" opacity="0.18"/>
<rect x="0" y="400" width="1024" height="2" fill="#000" opacity="0.18"/>
<rect x="0" y="404" width="1024" height="2" fill="#000" opacity="0.18"/>
<rect x="0" y="408" width="1024" height="2" fill="#000" opacity="0.18"/>
<rect x="0" y="412" width="1024" height="2" fill="#000" opacity="0.18"/>
<rect x="0" y="416" width="1024" height="2" fill="#000" opacity="0.18"/>
<rect x="0" y="420" width="1024" height="2" fill="#000" opacity="0.18"/>
<rect x="0" y="424" width="1024" height="2" fill="#000" opacity="0.18"/>
<rect x="0" y="428" width="1024" height="2" fill="#000" opacity="0.18"/>
<rect x="0" y="432" width="1024" height="2" fill="#000" opacity="0.18"/>
<rect x="0" y="436" width="1024" height="2" fill="#000" opacity="0.18"/>
<rect x="0" y="440" width="1024" height="2" fill="#000" opacity="0.18"/>
<rect x="0" y="444" width="1024" height="2" fill="#000" opacity="0.18"/>
<rect x="0" y="448" width="1024" height="2" fill="#000" opacity="0.18"/>
<rect x="0" y="452" width="1024" height="2" fill="#000" opacity="0.18"/>
<rect x="0" y="456" width="1024" height="2" fill="#000" opacity="0.18"/>
<rect x="0" y="460" width="1024" height="2" fill="#000" opacity="0.18"/>
<rect x="0" y="464" width="1024" height="2" fill="#000" opacity="0.18"/>
<rect x="0" y="468" width="1024" height="2" fill="#000" opacity="0.18"/>
<rect x="0" y="472" width="1024" height="2" fill="#000" opacity="0.18"/>
<rect x="0" y="476" width="1024" height="2" fill="#000" opacity="0.18"/>
<rect x="0" y="480" width="1024" height="2" fill="#000" opacity="0.18"/>
<rect x="0" y="484" width="1024" height="2" fill="#000" opacity="0.18"/>
<rect x="0" y="488" width="1024" height="2" fill="#000" opacity="0.18"/>
<rect x="0" y="492" width="1024" height="2" fill="#000" opacity="0.18"/>
<rect x="0" y="496" width="1024" height="2" fill="#000" opacity="0.18"/>
<rect x="0" y="500" width="1024" height="2" fill="#000" opacity="0.18"/>
<rect x="0" y="504" width="1024" height="2" fill="#000" opacity="0.18"/>
<rect x="0" y="508" width="1024" height="2" fill="#000" opacity="0.18"/>
<rect x="0" y="512" width="1024" height="2" fill="#000" opacity="0.18"/>
<rect x="0" y="516" width="1024" height="2" fill="#000" opacity="0.18"/>
<rect x="0" y="520" width="1024" height="2" fill="#000" opacity="0.18"/>
<rect x="0" y="524" width="1024" height="2" fill="#000" opacity="0.18"/>
<rect x="0" y="528" width="1024" height="2" fill="#000" opacity="0.18"/>
<rect x="0" y="532" width="1024" height="2" fill="#000" opacity="0.18"/>
<rect x="0" y="536" width="1024" height="2" fill="#000" opacity="0.18"/>
<rect x="0" y="540" width="1024" height="2" fill="#000" opacity="0.18"/>
<rect x="0" y="544" width="1024" height="2" fill="#000" opacity="0.18"/>
<rect x="0" y="548" width="1024" height="2" fill="#000" opacity="0.18"/>
<rect x="0" y="552" width="1024" height="2" fill="#000" opacity="0.18"/>
<rect x="0" y="556" width="1024" height="2" fill="#000" opacity="0.18"/>
<rect x="0" y="560" width="1024" height="2" fill="#000" opacity="0.18"/>
<rect x="0" y="564" width="1024" height="2" fill="#000" opacity="0.18"/>
<rect x="0" y="568" width="1024" height="2" fill="#000" opacity="0.18"/>
<rect x="0" y="572" width="1024" height="2" fill="#000" opacity="0.18"/>
<rect x="0" y="576" width="1024" height="2" fill="#000" opacity="0.18"/>
<rect x="0" y="580" width="1024" height="2" fill="#000" opacity="0.18"/>
<rect x="0" y="584" width="1024" height="2" fill="#000" opacity="0.18"/>
<rect x="0" y="588" width="1024" height="2" fill="#000" opacity="0.18"/>
<rect x="0" y="592" width="1024" height="2" fill="#000" opacity="0.18"/>
<rect x="0" y="596" width="1024" height="2" fill="#000" opacity="0.18"/>
<rect x="0" y="600" width="1024" height="2" fill="#000" opacity="0.18"/>
<rect x="0" y="604" width="1024" height="2" fill="#000" opacity="0.18"/>
<rect x="0" y="608" width="1024" height="2" fill="#000" opacity="0.18"/>
<rect x="0" y="612" width="1024" height="2" fill="#000" opacity="0.18"/>
<rect x="0" y="616" width="1024" height="2" fill="#000" opacity="0.18"/>
<rect x="0" y="620" width="1024" height="2" fill="#000" opacity="0.18"/>
<rect x="0" y="624" width="1024" height="2" fill="#000" opacity="0.18"/>
<rect x="0" y="628" width="1024" height="2" fill="#000" opacity="0.18"/>
<rect x="0" y="632" width="1024" height="2" fill="#000" opacity="0.18"/>
<rect x="0" y="636" width="1024" height="2" fill="#000" opacity="0.18"/>
<rect x="0" y="640" width="1024" height="2" fill="#000" opacity="0.18"/>
<rect x="0" y="644" width="1024" height="2" fill="#000" opacity="0.18"/>
<rect x="0" y="648" width="1024" height="2" fill="#000" opacity="0.18"/>
<rect x="0" y="652" width="1024" height="2" fill="#000" opacity="0.18"/>
<rect x="0" y="656" width="1024" height="2" fill="#000" opacity="0.18"/>
<rect x="0" y="660" width="1024" height="2" fill="#000" opacity="0.18"/>
<rect x="0" y="664" width="1024" height="2" fill="#000" opacity="0.18"/>
<rect x="0" y="668" width="1024" height="2" fill="#000" opacity="0.18"/>
<rect x="0" y="672" width="1024" height="2" fill="#000" opacity="0.18"/>
<rect x="0" y="676" width="1024" height="2" fill="#000" opacity="0.18"/>
<rect x="0" y="680" width="1024" height="2" fill="#000" opacity="0.18"/>
<rect x="0" y="684" width="1024" height="2" fill="#000" opacity="0.18"/>
<rect x="0" y="688" width="1024" height="2" fill="#000" opacity="0.18"/>
<rect x="0" y="692" width="1024" height="2" fill="#000" opacity="0.18"/>
<rect x="0" y="696" width="1024" height="2" fill="#000" opacity="0.18"/>
<rect x="0" y="700" width="1024" height="2" fill="#000" opacity="0.18"/>
<rect x="0" y="704" width="1024" height="2" fill="#000" opacity="0.18"/>
<rect x="0" y="708" width="1024" height="2" fill="#000" opacity="0.18"/>
<rect x="0" y="712" width="1024" height="2" fill="#000" opacity="0.18"/>
<rect x="0" y="716" width="1024" height="2" fill="#000" opacity="0.18"/>
<rect x="0" y="720" width="1024" height="2" fill="#000" opacity="0.18"/>
<rect x="0" y="724" width="1024" height="2" fill="#000" opacity="0.18"/>
<rect x="0" y="728" width="1024" height="2" fill="#000" opacity="0.18"/>
<rect x="0" y="732" width="1024" height="2" fill="#000" opacity="0.18"/>
<rect x="0" y="736" width="1024" height="2" fill="#000" opacity="0.18"/>
<rect x="0" y="740" width="1024" height="2" fill="#000" opacity="0.18"/>
<rect x="0" y="744" width="1024" height="2" fill="#000" opacity="0.18"/>
<rect x="0" y="748" width="1024" height="2" fill="#000" opacity="0.18"/>
<rect x="0" y="752" width="1024" height="2" fill="#000" opacity="0.18"/>
<rect x="0" y="756" width="1024" height="2" fill="#000" opacity="0.18"/>
<rect x="0" y="760" width="1024" height="2" fill="#000" opacity="0.18"/>
<rect x="0" y="764" width="1024" height="2" fill="#000" opacity="0.18"/>
<rect x="0" y="768" width="1024" height="2" fill="#000" opacity="0.18"/>
<rect x="0" y="772" width="1024" height="2" fill="#000" opacity="0.18"/>
<rect x="0" y="776" width="1024" height="2" fill="#000" opacity="0.18"/>
<rect x="0" y="780" width="1024" height="2" fill="#000" opacity="0.18"/>
<rect x="0" y="784" width="1024" height="2" fill="#000" opacity="0.18"/>
<rect x="0" y="788" width="1024" height="2" fill="#000" opacity="0.18"/>
<rect x="0" y="792" width="1024" height="2" fill="#000" opacity="0.18"/>
<rect x="0" y="796" width="1024" height="2" fill="#000" opacity="0.18"/>
<rect x="0" y="800" width="1024" height="2" fill="#000" opacity="0.18"/>
<rect x="0" y="804" width="1024" height="2" fill="#000" opacity="0.18"/>
<rect x="0" y="808" width="1024" height="2" fill="#000" opacity="0.18"/>
<rect x="0" y="812" width="1024" height="2" fill="#000" opacity="0.18"/>
<rect x="0" y="816" width="1024" height="2" fill="#000" opacity="0.18"/>
<rect x="0" y="820" width="1024" height="2" fill="#000" opacity="0.18"/>
<rect x="0" y="824" width="1024" height="2" fill="#000" opacity="0.18"/>
<rect x="0" y="828" width="1024" height="2" fill="#000" opacity="0.18"/>
<rect x="0" y="832" width="1024" height="2" fill="#000" opacity="0.18"/>
<rect x="0" y="836" width="1024" height="2" fill="#000" opacity="0.18"/>
<rect x="0" y="840" width="1024" height="2" fill="#000" opacity="0.18"/>
<rect x="0" y="844" width="1024" height="2" fill="#000" opacity="0.18"/>
<rect x="0" y="848" width="1024" height="2" fill="#000" opacity="0.18"/>
<rect x="0" y="852" width="1024" height="2" fill="#000" opacity="0.18"/>
<rect x="0" y="856" width="1024" height="2" fill="#000" opacity="0.18"/>
<rect x="0" y="860" width="1024" height="2" fill="#000" opacity="0.18"/>
<rect x="0" y="864" width="1024" height="2" fill="#000" opacity="0.18"/>
<rect x="0" y="868" width="1024" height="2" fill="#000" opacity="0.18"/>
<rect x="0" y="872" width="1024" height="2" fill="#000" opacity="0.18"/>
<rect x="0" y="876" width="1024" height="2" fill="#000" opacity="0.18"/>
<rect x="0" y="880" width="1024" height="2" fill="#000" opacity="0.18"/>
<rect x="0" y="884" width="1024" height="2" fill="#000" opacity="0.18"/>
<rect x="0" y="888" width="1024" height="2" fill="#000" opacity="0.18"/>
<rect x="0" y="892" width="1024" height="2" fill="#000" opacity="0.18"/>
<rect x="0" y="896" width="1024" height="2" fill="#000" opacity="0.18"/>
<rect x="0" y="900" width="1024" height="2" fill="#000" opacity="0.18"/>
<rect x="0" y="904" width="1024" height="2" fill="#000" opacity="0.18"/>
<rect x="0" y="908" width="1024" height="2" fill="#000" opacity="0.18"/>
<rect x="0" y="912" width="1024" height="2" fill="#000" opacity="0.18"/>
<rect x="0" y="916" width="1024" height="2" fill="#000" opacity="0.18"/>
<rect x="0" y="920" width="1024" height="2" fill="#000" opacity="0.18"/>
<rect x="0" y="924" width="1024" height="2" fill="#000" opacity="0.18"/>
<rect x="0" y="928" width="1024" height="2" fill="#000" opacity="0.18"/>
<rect x="0" y="932" width="1024" height="2" fill="#000" opacity="0.18"/>
<rect x="0" y="936" width="1024" height="2" fill="#000" opacity="0.18"/>
<rect x="0" y="940" width="1024" height="2" fill="#000" opacity="0.18"/>
<rect x="0" y="944" width="1024" height="2" fill="#000" opacity="0.18"/>
<rect x="0" y="948" width="1024" height="2" fill="#000" opacity="0.18"/>
<rect x="0" y="952" width="1024" height="2" fill="#000" opacity="0.18"/>
<rect x="0" y="956" width="1024" height="2" fill="#000" opacity="0.18"/>
<rect x="0" y="960" width="1024" height="2" fill="#000" opacity="0.18"/>
<rect x="0" y="964" width="1024" height="2" fill="#000" opacity="0.18"/>
<rect x="0" y="968" width="1024" height="2" fill="#000" opacity="0.18"/>
<rect x="0" y="972" width="1024" height="2" fill="#000" opacity="0.18"/>
<rect x="0" y="976" width="1024" height="2" fill="#000" opacity="0.18"/>
<rect x="0" y="980" width="1024" height="2" fill="#000" opacity="0.18"/>
<rect x="0" y="984" width="1024" height="2" fill="#000" opacity="0.18"/>
<rect x="0" y="988" width="1024" height="2" fill="#000" opacity="0.18"/>
<rect x="0" y="992" width="1024" height="2" fill="#000" opacity="0.18"/>
<rect x="0" y="996" width="1024" height="2" fill="#000" opacity="0.18"/>
<rect x="0" y="1000" width="1024" height="2" fill="#000" opacity="0.18"/>
<rect x="0" y="1004" width="1024" height="2" fill="#000" opacity="0.18"/>
<rect x="0" y="1008" width="1024" height="2" fill="#000" opacity="0.18"/>
<rect x="0" y="1012" width="1024" height="2" fill="#000" opacity="0.18"/>
<rect x="0" y="1016" width="1024" height="2" fill="#000" opacity="0.18"/>
<rect x="0" y="1020" width="1024" height="2" fill="#000" opacity="0.18"/>

<text x="40" y="980" font-family="monospace" font-size="34" fill="#39ff14" opacity="0.9">WORM#07 · KILL-SWITCH-9999</text>
<text x="44" y="984" font-family="monospace" font-size="34" fill="#ff2bd6" opacity="0.5">WORM#07 · KILL-SWITCH-9999</text>
</svg>