<svg xmlns="http://www.w3.org/2000/svg" width="1024" height="1024" viewBox="0 0 1024 1024">
<rect width="100%" height="100%" fill="#05010a"/>
<g style="mix-blend-mode:screen">
<rect x="871" y="186" width="94" height="16" fill="rgb(38,208,173)" opacity="0.79"/>
<rect x="956" y="581" width="84" height="50" fill="rgb(65,155,240)" opacity="0.40"/>
<rect x="254" y="748" width="164" height="38" fill="rgb(19,186,23)" opacity="0.69"/>
<rect x="91" y="5" width="75" height="27" fill="rgb(142,157,32)" opacity="0.62"/>
<rect x="168" y="185" width="158" height="53" fill="rgb(137,200,143)" opacity="0.75"/>
<rect x="734" y="134" width="65" height="21" fill="rgb(62,82,234)" opacity="0.26"/>
<rect x="664" y="446" width="70" height="6" fill="rgb(203,103,62)" opacity="0.63"/>
<rect x="662" y="7" width="118" height="31" fill="rgb(178,199,153)" opacity="0.51"/>
<rect x="317" y="729" width="39" height="14" fill="rgb(89,69,143)" opacity="0.50"/>
<rect x="277" y="2" width="161" height="42" fill="rgb(139,73,182)" opacity="0.68"/>
<rect x="329" y="549" width="130" height="43" fill="rgb(244,78,41)" opacity="0.56"/>
<rect x="555" y="823" width="42" height="41" fill="rgb(169,100,8)" opacity="0.68"/>
<rect x="429" y="769" width="99" height="60" fill="rgb(157,175,246)" opacity="0.82"/>
<rect x="1001" y="416" width="33" height="47" fill="rgb(45,230,154)" opacity="0.26"/>
<rect x="922" y="520" width="127" height="52" fill="rgb(150,214,31)" opacity="0.66"/>
<rect x="673" y="125" width="21" height="62" fill="rgb(121,221,180)" opacity="0.69"/>
<rect x="641" y="281" width="156" height="39" fill="rgb(94,111,13)" opacity="0.56"/>
<rect x="227" y="585" width="190" height="43" fill="rgb(46,148,224)" opacity="0.76"/>
<rect x="19" y="847" width="87" height="19" fill="rgb(184,103,104)" opacity="0.41"/>
<rect x="896" y="706" width="145" height="42" fill="rgb(45,152,229)" opacity="0.25"/>
<rect x="64" y="265" width="108" height="47" fill="rgb(164,235,26)" opacity="0.35"/>
<rect x="394" y="740" width="230" height="5" fill="rgb(150,184,206)" opacity="0.73"/>
<rect x="315" y="995" width="173" height="14" fill="rgb(99,105,76)" opacity="0.27"/>
<rect x="82" y="237" width="168" height="53" fill="rgb(203,255,228)" opacity="0.41"/>
<rect x="883" y="698" width="42" height="8" fill="rgb(118,142,103)" opacity="0.73"/>
<rect x="872" y="89" width="211" height="42" fill="rgb(109,188,174)" opacity="0.58"/>
<rect x="411" y="427" width="177" height="50" fill="rgb(158,69,20)" opacity="0.70"/>
<rect x="157" y="486" width="172" height="38" fill="rgb(92,122,247)" opacity="0.62"/>
<rect x="162" y="531" width="66" height="57" fill="rgb(220,189,59)" opacity="0.40"/>
<rect x="2" y="912" width="164" height="10" fill="rgb(185,7,199)" opacity="0.32"/>
<rect x="954" y="655" width="211" height="15" fill="rgb(114,98,6)" opacity="0.84"/>
<rect x="1001" y="149" width="120" height="46" fill="rgb(231,111,103)" opacity="0.70"/>
<rect x="84" y="764" width="76" height="7" fill="rgb(223,226,222)" opacity="0.54"/>
<rect x="226" y="370" width="100" height="17" fill="rgb(133,1,97)" opacity="0.84"/>
<rect x="545" y="120" width="163" height="60" fill="rgb(230,41,107)" opacity="0.35"/>
<rect x="447" y="995" width="211" height="49" fill="rgb(117,72,124)" opacity="0.73"/>
<rect x="786" y="350" width="156" height="11" fill="rgb(135,100,151)" opacity="0.69"/>
<rect x="912" y="742" width="157" height="50" fill="rgb(215,19,195)" opacity="0.69"/>
<rect x="855" y="333" width="169" height="59" fill="rgb(3,0,139)" opacity="0.76"/>
<rect x="423" y="696" width="107" height="11" fill="rgb(13,109,127)" opacity="0.65"/>
<rect x="355" y="288" width="90" height="42" fill="rgb(219,171,176)" opacity="0.69"/>
<rect x="404" y="212" width="134" height="34" fill="rgb(184,164,55)" opacity="0.42"/>
<rect x="485" y="758" width="161" height="18" fill="rgb(208,81,175)" opacity="0.34"/>
<rect x="808" y="1018" width="55" height="60" fill="rgb(184,68,182)" opacity="0.52"/>
<rect x="975" y="555" width="122" height="39" fill="rgb(228,32,112)" opacity="0.60"/>
<rect x="116" y="37" width="87" height="26" fill="rgb(47,28,4)" opacity="0.34"/>
<rect x="83" y="859" width="155" height="50" fill="rgb(86,132,29)" opacity="0.75"/>
<rect x="458" y="659" width="71" height="16" fill="rgb(125,55,107)" opacity="0.76"/>
<rect x="736" y="101" width="84" height="33" fill="rgb(169,42,31)" opacity="0.32"/>
<rect x="443" y="448" width="40" height="36" fill="rgb(68,228,114)" opacity="0.62"/>
<rect x="296" y="101" width="43" height="59" fill="rgb(157,0,31)" opacity="0.33"/>
<rect x="279" y="362" width="71" height="30" fill="rgb(101,174,228)" opacity="0.51"/>
<rect x="796" y="952" width="212" height="7" fill="rgb(51,49,5)" opacity="0.43"/>
<rect x="751" y="653" width="225" height="28" fill="rgb(1,98,201)" opacity="0.58"/>
<rect x="748" y="1019" width="233" height="9" fill="rgb(172,44,252)" opacity="0.73"/>
<rect x="149" y="871" width="155" height="31" fill="rgb(120,15,107)" opacity="0.61"/>
<rect x="267" y="12" width="63" height="34" fill="rgb(138,158,106)" opacity="0.47"/>
<rect x="409" y="885" width="202" height="16" fill="rgb(108,1,82)" opacity="0.62"/>
<rect x="41" y="6" width="34" height="43" fill="rgb(140,115,251)" opacity="0.27"/>
<rect x="972" y="883" width="79" height="39" fill="rgb(189,196,71)" opacity="0.52"/>

</g>
<rect x="0" y="0" width="1024" height="2" fill="#000" opacity="0.18"/>
<rect x="0" y="4" width="1024" height="2" fill="#000" opacity="0.18"/>
<rect x="0" y="8" width="1024" height="2" fill="#000" opacity="0.18"/>
<rect x="0" y="12" width="1024" height="2" fill="#000" opacity="0.18"/>
<rect x="0" y="16" width="1024" height="2" fill="#000" opacity="0.18"/>
<rect x="0" y="20" width="1024" height="2" fill="#000" opacity="0.18"/>
<rect x="0" y="24" width="1024" height="2" fill="#000" opacity="0.18"/>
<rect x="0" y="28" width="1024" height="2" fill="#000" opacity="0.18"/>
<rect x="0" y="32" width="1024" height="2" fill="#000" opacity="0.18"/>
<rect x="0" y="36" width="1024" height="2" fill="#000" opacity="0.18"/>
<rect x="0" y="40" width="1024" height="2" fill="#000" opacity="0.18"/>
<rect x="0" y="44" width="1024" height="2" fill="#000" opacity="0.18"/>
<rect x="0" y="48" width="1024" height="2" fill="#000" opacity="0.18"/>
<rect x="0" y="52" width="1024" height="2" fill="#000" opacity="0.18"/>
<rect x="0" y="56" width="1024" height="2" fill="#000" opacity="0.18"/>
<rect x="0" y="60" width="1024" height="2" fill="#000" opacity="0.18"/>
<rect x="0" y="64" width="1024" height="2" fill="#000" opacity="0.18"/>
<rect x="0" y="68" width="1024" height="2" fill="#000" opacity="0.18"/>
<rect x="0" y="72" width="1024" height="2" fill="#000" opacity="0.18"/>
<rect x="0" y="76" width="1024" height="2" fill="#000" opacity="0.18"/>
<rect x="0" y="80" width="1024" height="2" fill="#000" opacity="0.18"/>
<rect x="0" y="84" width="1024" height="2" fill="#000" opacity="0.18"/>
<rect x="0" y="88" width="1024" height="2" fill="#000" opacity="0.18"/>
<rect x="0" y="92" width="1024" height="2" fill="#000" opacity="0.18"/>
<rect x="0" y="96" width="1024" height="2" fill="#000" opacity="0.18"/>
<rect x="0" y="100" width="1024" height="2" fill="#000" opacity="0.18"/>
<rect x="0" y="104" width="1024" height="2" fill="#000" opacity="0.18"/>
<rect x="0" y="108" width="1024" height="2" fill="#000" opacity="0.18"/>
<rect x="0" y="112" width="1024" height="2" fill="#000" opacity="0.18"/>
<rect x="0" y="116" width="1024" height="2" fill="#000" opacity="0.18"/>
<rect x="0" y="120" width="1024" height="2" fill="#000" opacity="0.18"/>
<rect x="0" y="124" width="1024" height="2" fill="#000" opacity="0.18"/>
<rect x="0" y="128" width="1024" height="2" fill="#000" opacity="0.18"/>
<rect x="0" y="132" width="1024" height="2" fill="#000" opacity="0.18"/>
<rect x="0" y="136" width="1024" height="2" fill="#000" opacity="0.18"/>
<rect x="0" y="140" width="1024" height="2" fill="#000" opacity="0.18"/>
<rect x="0" y="144" width="1024" height="2" fill="#000" opacity="0.18"/>
<rect x="0" y="148" width="1024" height="2" fill="#000" opacity="0.18"/>
<rect x="0" y="152" width="1024" height="2" fill="#000" opacity="0.18"/>
<rect x="0" y="156" width="1024" height="2" fill="#000" opacity="0.18"/>
<rect x="0" y="160" width="1024" height="2" fill="#000" opacity="0.18"/>
<rect x="0" y="164" width="1024" height="2" fill="#000" opacity="0.18"/>
<rect x="0" y="168" width="1024" height="2" fill="#000" opacity="0.18"/>
<rect x="0" y="172" width="1024" height="2" fill="#000" opacity="0.18"/>
<rect x="0" y="176" width="1024" height="2" fill="#000" opacity="0.18"/>
<rect x="0" y="180" width="1024" height="2" fill="#000" opacity="0.18"/>
<rect x="0" y="184" width="1024" height="2" fill="#000" opacity="0.18"/>
<rect x="0" y="188" width="1024" height="2" fill="#000" opacity="0.18"/>
<rect x="0" y="192" width="1024" height="2" fill="#000" opacity="0.18"/>
<rect x="0" y="196" width="1024" height="2" fill="#000" opacity="0.18"/>
<rect x="0" y="200" width="1024" height="2" fill="#000" opacity="0.18"/>
<rect x="0" y="204" width="1024" height="2" fill="#000" opacity="0.18"/>
<rect x="0" y="208" width="1024" height="2" fill="#000" opacity="0.18"/>
<rect x="0" y="212" width="1024" height="2" fill="#000" opacity="0.18"/>
<rect x="0" y="216" width="1024" height="2" fill="#000" opacity="0.18"/>
<rect x="0" y="220" width="1024" height="2" fill="#000" opacity="0.18"/>
<rect x="0" y="224" width="1024" height="2" fill="#000" opacity="0.18"/>
<rect x="0" y="228" width="1024" height="2" fill="#000" opacity="0.18"/>
<rect x="0" y="232" width="1024" height="2" fill="#000" opacity="0.18"/>
<rect x="0" y="236" width="1024" height="2" fill="#000" opacity="0.18"/>
<rect x="0" y="240" width="1024" height="2" fill="#000" opacity="0.18"/>
<rect x="0" y="244" width="1024" height="2" fill="#000" opacity="0.18"/>
<rect x="0" y="248" width="1024" height="2" fill="#000" opacity="0.18"/>
<rect x="0" y="252" width="1024" height="2" fill="#000" opacity="0.18"/>
<rect x="0" y="256" width="1024" height="2" fill="#000" opacity="0.18"/>
<rect x="0" y="260" width="1024" height="2" fill="#000" opacity="0.18"/>
<rect x="0" y="264" width="1024" height="2" fill="#000" opacity="0.18"/>
<rect x="0" y="268" width="1024" height="2" fill="#000" opacity="0.18"/>
<rect x="0" y="272" width="1024" height="2" fill="#000" opacity="0.18"/>
<rect x="0" y="276" width="1024" height="2" fill="#000" opacity="0.18"/>
<rect x="0" y="280" width="1024" height="2" fill="#000" opacity="0.18"/>
<rect x="0" y="284" width="1024" height="2" fill="#000" opacity="0.18"/>
<rect x="0" y="288" width="1024" height="2" fill="#000" opacity="0.18"/>
<rect x="0" y="292" width="1024" height="2" fill="#000" opacity="0.18"/>
<rect x="0" y="296" width="1024" height="2" fill="#000" opacity="0.18"/>
<rect x="0" y="300" width="1024" height="2" fill="#000" opacity="0.18"/>
<rect x="0" y="304" width="1024" height="2" fill="#000" opacity="0.18"/>
<rect x="0" y="308" width="1024" height="2" fill="#000" opacity="0.18"/>
<rect x="0" y="312" width="1024" height="2" fill="#000" opacity="0.18"/>
<rect x="0" y="316" width="1024" height="2" fill="#000" opacity="0.18"/>
<rect x="0" y="320" width="1024" height="2" fill="#000" opacity="0.18"/>
<rect x="0" y="324" width="1024" height="2" fill="#000" opacity="0.18"/>
<rect x="0" y="328" width="1024" height="2" fill="#000" opacity="0.18"/>
<rect x="0" y="332" width="1024" height="2" fill="#000" opacity="0.18"/>
<rect x="0" y="336" width="1024" height="2" fill="#000" opacity="0.18"/>
<rect x="0" y="340" width="1024" height="2" fill="#000" opacity="0.18"/>
<rect x="0" y="344" width="1024" height="2" fill="#000" opacity="0.18"/>
<rect x="0" y="348" width="1024" height="2" fill="#000" opacity="0.18"/>
<rect x="0" y="352" width="1024" height="2" fill="#000" opacity="0.18"/>
<rect x="0" y="356" width="1024" height="2" fill="#000" opacity="0.18"/>
<rect x="0" y="360" width="1024" height="2" fill="#000" opacity="0.18"/>
<rect x="0" y="364" width="1024" height="2" fill="#000" opacity="0.18"/>
<rect x="0" y="368" width="1024" height="2" fill="#000" opacity="0.18"/>
<rect x="0" y="372" width="1024" height="2" fill="#000" opacity="0.18"/>
<rect x="0" y="376" width="1024" height="2" fill="#000" opacity="0.18"/>
<rect x="0" y="380" width="1024" height="2" fill="#000" opacity="0.18"/>
<rect x="0" y="384" width="1024" height="2" fill="#000" opacity="0.18"/>
<rect x="0" y="388" width="1024" height="2" fill="#000" opacity="0.18"/>
<rect x="0" y="392" width="1024" height="2" fill="#000" opacity="0.18"/>
<rect x="0" y="396" width="1024" height="2" fill="#000" opacity="0.18"/>
<rect x="0" y="400" width="1024" height="2" fill="#000" opacity="0.18"/>
<rect x="0" y="404" width="1024" height="2" fill="#000" opacity="0.18"/>
<rect x="0" y="408" width="1024" height="2" fill="#000" opacity="0.18"/>
<rect x="0" y="412" width="1024" height="2" fill="#000" opacity="0.18"/>
<rect x="0" y="416" width="1024" height="2" fill="#000" opacity="0.18"/>
<rect x="0" y="420" width="1024" height="2" fill="#000" opacity="0.18"/>
<rect x="0" y="424" width="1024" height="2" fill="#000" opacity="0.18"/>
<rect x="0" y="428" width="1024" height="2" fill="#000" opacity="0.18"/>
<rect x="0" y="432" width="1024" height="2" fill="#000" opacity="0.18"/>
<rect x="0" y="436" width="1024" height="2" fill="#000" opacity="0.18"/>
<rect x="0" y="440" width="1024" height="2" fill="#000" opacity="0.18"/>
<rect x="0" y="444" width="1024" height="2" fill="#000" opacity="0.18"/>
<rect x="0" y="448" width="1024" height="2" fill="#000" opacity="0.18"/>
<rect x="0" y="452" width="1024" height="2" fill="#000" opacity="0.18"/>
<rect x="0" y="456" width="1024" height="2" fill="#000" opacity="0.18"/>
<rect x="0" y="460" width="1024" height="2" fill="#000" opacity="0.18"/>
<rect x="0" y="464" width="1024" height="2" fill="#000" opacity="0.18"/>
<rect x="0" y="468" width="1024" height="2" fill="#000" opacity="0.18"/>
<rect x="0" y="472" width="1024" height="2" fill="#000" opacity="0.18"/>
<rect x="0" y="476" width="1024" height="2" fill="#000" opacity="0.18"/>
<rect x="0" y="480" width="1024" height="2" fill="#000" opacity="0.18"/>
<rect x="0" y="484" width="1024" height="2" fill="#000" opacity="0.18"/>
<rect x="0" y="488" width="1024" height="2" fill="#000" opacity="0.18"/>
<rect x="0" y="492" width="1024" height="2" fill="#000" opacity="0.18"/>
<rect x="0" y="496" width="1024" height="2" fill="#000" opacity="0.18"/>
<rect x="0" y="500" width="1024" height="2" fill="#000" opacity="0.18"/>
<rect x="0" y="504" width="1024" height="2" fill="#000" opacity="0.18"/>
<rect x="0" y="508" width="1024" height="2" fill="#000" opacity="0.18"/>
<rect x="0" y="512" width="1024" height="2" fill="#000" opacity="0.18"/>
<rect x="0" y="516" width="1024" height="2" fill="#000" opacity="0.18"/>
<rect x="0" y="520" width="1024" height="2" fill="#000" opacity="0.18"/>
<rect x="0" y="524" width="1024" height="2" fill="#000" opacity="0.18"/>
<rect x="0" y="528" width="1024" height="2" fill="#000" opacity="0.18"/>
<rect x="0" y="532" width="1024" height="2" fill="#000" opacity="0.18"/>
<rect x="0" y="536" width="1024" height="2" fill="#000" opacity="0.18"/>
<rect x="0" y="540" width="1024" height="2" fill="#000" opacity="0.18"/>
<rect x="0" y="544" width="1024" height="2" fill="#000" opacity="0.18"/>
<rect x="0" y="548" width="1024" height="2" fill="#000" opacity="0.18"/>
<rect x="0" y="552" width="1024" height="2" fill="#000" opacity="0.18"/>
<rect x="0" y="556" width="1024" height="2" fill="#000" opacity="0.18"/>
<rect x="0" y="560" width="1024" height="2" fill="#000" opacity="0.18"/>
<rect x="0" y="564" width="1024" height="2" fill="#000" opacity="0.18"/>
<rect x="0" y="568" width="1024" height="2" fill="#000" opacity="0.18"/>
<rect x="0" y="572" width="1024" height="2" fill="#000" opacity="0.18"/>
<rect x="0" y="576" width="1024" height="2" fill="#000" opacity="0.18"/>
<rect x="0" y="580" width="1024" height="2" fill="#000" opacity="0.18"/>
<rect x="0" y="584" width="1024" height="2" fill="#000" opacity="0.18"/>
<rect x="0" y="588" width="1024" height="2" fill="#000" opacity="0.18"/>
<rect x="0" y="592" width="1024" height="2" fill="#000" opacity="0.18"/>
<rect x="0" y="596" width="1024" height="2" fill="#000" opacity="0.18"/>
<rect x="0" y="600" width="1024" height="2" fill="#000" opacity="0.18"/>
<rect x="0" y="604" width="1024" height="2" fill="#000" opacity="0.18"/>
<rect x="0" y="608" width="1024" height="2" fill="#000" opacity="0.18"/>
<rect x="0" y="612" width="1024" height="2" fill="#000" opacity="0.18"/>
<rect x="0" y="616" width="1024" height="2" fill="#000" opacity="0.18"/>
<rect x="0" y="620" width="1024" height="2" fill="#000" opacity="0.18"/>
<rect x="0" y="624" width="1024" height="2" fill="#000" opacity="0.18"/>
<rect x="0" y="628" width="1024" height="2" fill="#000" opacity="0.18"/>
<rect x="0" y="632" width="1024" height="2" fill="#000" opacity="0.18"/>
<rect x="0" y="636" width="1024" height="2" fill="#000" opacity="0.18"/>
<rect x="0" y="640" width="1024" height="2" fill="#000" opacity="0.18"/>
<rect x="0" y="644" width="1024" height="2" fill="#000" opacity="0.18"/>
<rect x="0" y="648" width="1024" height="2" fill="#000" opacity="0.18"/>
<rect x="0" y="652" width="1024" height="2" fill="#000" opacity="0.18"/>
<rect x="0" y="656" width="1024" height="2" fill="#000" opacity="0.18"/>
<rect x="0" y="660" width="1024" height="2" fill="#000" opacity="0.18"/>
<rect x="0" y="664" width="1024" height="2" fill="#000" opacity="0.18"/>
<rect x="0" y="668" width="1024" height="2" fill="#000" opacity="0.18"/>
<rect x="0" y="672" width="1024" height="2" fill="#000" opacity="0.18"/>
<rect x="0" y="676" width="1024" height="2" fill="#000" opacity="0.18"/>
<rect x="0" y="680" width="1024" height="2" fill="#000" opacity="0.18"/>
<rect x="0" y="684" width="1024" height="2" fill="#000" opacity="0.18"/>
<rect x="0" y="688" width="1024" height="2" fill="#000" opacity="0.18"/>
<rect x="0" y="692" width="1024" height="2" fill="#000" opacity="0.18"/>
<rect x="0" y="696" width="1024" height="2" fill="#000" opacity="0.18"/>
<rect x="0" y="700" width="1024" height="2" fill="#000" opacity="0.18"/>
<rect x="0" y="704" width="1024" height="2" fill="#000" opacity="0.18"/>
<rect x="0" y="708" width="1024" height="2" fill="#000" opacity="0.18"/>
<rect x="0" y="712" width="1024" height="2" fill="#000" opacity="0.18"/>
<rect x="0" y="716" width="1024" height="2" fill="#000" opacity="0.18"/>
<rect x="0" y="720" width="1024" height="2" fill="#000" opacity="0.18"/>
<rect x="0" y="724" width="1024" height="2" fill="#000" opacity="0.18"/>
<rect x="0" y="728" width="1024" height="2" fill="#000" opacity="0.18"/>
<rect x="0" y="732" width="1024" height="2" fill="#000" opacity="0.18"/>
<rect x="0" y="736" width="1024" height="2" fill="#000" opacity="0.18"/>
<rect x="0" y="740" width="1024" height="2" fill="#000" opacity="0.18"/>
<rect x="0" y="744" width="1024" height="2" fill="#000" opacity="0.18"/>
<rect x="0" y="748" width="1024" height="2" fill="#000" opacity="0.18"/>
<rect x="0" y="752" width="1024" height="2" fill="#000" opacity="0.18"/>
<rect x="0" y="756" width="1024" height="2" fill="#000" opacity="0.18"/>
<rect x="0" y="760" width="1024" height="2" fill="#000" opacity="0.18"/>
<rect x="0" y="764" width="1024" height="2" fill="#000" opacity="0.18"/>
<rect x="0" y="768" width="1024" height="2" fill="#000" opacity="0.18"/>
<rect x="0" y="772" width="1024" height="2" fill="#000" opacity="0.18"/>
<rect x="0" y="776" width="1024" height="2" fill="#000" opacity="0.18"/>
<rect x="0" y="780" width="1024" height="2" fill="#000" opacity="0.18"/>
<rect x="0" y="784" width="1024" height="2" fill="#000" opacity="0.18"/>
<rect x="0" y="788" width="1024" height="2" fill="#000" opacity="0.18"/>
<rect x="0" y="792" width="1024" height="2" fill="#000" opacity="0.18"/>
<rect x="0" y="796" width="1024" height="2" fill="#000" opacity="0.18"/>
<rect x="0" y="800" width="1024" height="2" fill="#000" opacity="0.18"/>
<rect x="0" y="804" width="1024" height="2" fill="#000" opacity="0.18"/>
<rect x="0" y="808" width="1024" height="2" fill="#000" opacity="0.18"/>
<rect x="0" y="812" width="1024" height="2" fill="#000" opacity="0.18"/>
<rect x="0" y="816" width="1024" height="2" fill="#000" opacity="0.18"/>
<rect x="0" y="820" width="1024" height="2" fill="#000" opacity="0.18"/>
<rect x="0" y="824" width="1024" height="2" fill="#000" opacity="0.18"/>
<rect x="0" y="828" width="1024" height="2" fill="#000" opacity="0.18"/>
<rect x="0" y="832" width="1024" height="2" fill="#000" opacity="0.18"/>
<rect x="0" y="836" width="1024" height="2" fill="#000" opacity="0.18"/>
<rect x="0" y="840" width="1024" height="2" fill="#000" opacity="0.18"/>
<rect x="0" y="844" width="1024" height="2" fill="#000" opacity="0.18"/>
<rect x="0" y="848" width="1024" height="2" fill="#000" opacity="0.18"/>
<rect x="0" y="852" width="1024" height="2" fill="#000" opacity="0.18"/>
<rect x="0" y="856" width="1024" height="2" fill="#000" opacity="0.18"/>
<rect x="0" y="860" width="1024" height="2" fill="#000" opacity="0.18"/>
<rect x="0" y="864" width="1024" height="2" fill="#000" opacity="0.18"/>
<rect x="0" y="868" width="1024" height="2" fill="#000" opacity="0.18"/>
<rect x="0" y="872" width="1024" height="2" fill="#000" opacity="0.18"/>
<rect x="0" y="876" width="1024" height="2" fill="#000" opacity="0.18"/>
<rect x="0" y="880" width="1024" height="2" fill="#000" opacity="0.18"/>
<rect x="0" y="884" width="1024" height="2" fill="#000" opacity="0.18"/>
<rect x="0" y="888" width="1024" height="2" fill="#000" opacity="0.18"/>
<rect x="0" y="892" width="1024" height="2" fill="#000" opacity="0.18"/>
<rect x="0" y="896" width="1024" height="2" fill="#000" opacity="0.18"/>
<rect x="0" y="900" width="1024" height="2" fill="#000" opacity="0.18"/>
<rect x="0" y="904" width="1024" height="2" fill="#000" opacity="0.18"/>
<rect x="0" y="908" width="1024" height="2" fill="#000" opacity="0.18"/>
<rect x="0" y="912" width="1024" height="2" fill="#000" opacity="0.18"/>
<rect x="0" y="916" width="1024" height="2" fill="#000" opacity="0.18"/>
<rect x="0" y="920" width="1024" height="2" fill="#000" opacity="0.18"/>
<rect x="0" y="924" width="1024" height="2" fill="#000" opacity="0.18"/>
<rect x="0" y="928" width="1024" height="2" fill="#000" opacity="0.18"/>
<rect x="0" y="932" width="1024" height="2" fill="#000" opacity="0.18"/>
<rect x="0" y="936" width="1024" height="2" fill="#000" opacity="0.18"/>
<rect x="0" y="940" width="1024" height="2" fill="#000" opacity="0.18"/>
<rect x="0" y="944" width="1024" height="2" fill="#000" opacity="0.18"/>
<rect x="0" y="948" width="1024" height="2" fill="#000" opacity="0.18"/>
<rect x="0" y="952" width="1024" height="2" fill="#000" opacity="0.18"/>
<rect x="0" y="956" width="1024" height="2" fill="#000" opacity="0.18"/>
<rect x="0" y="960" width="1024" height="2" fill="#000" opacity="0.18"/>
<rect x="0" y="964" width="1024" height="2" fill="#000" opacity="0.18"/>
<rect x="0" y="968" width="1024" height="2" fill="#000" opacity="0.18"/>
<rect x="0" y="972" width="1024" height="2" fill="#000" opacity="0.18"/>
<rect x="0" y="976" width="1024" height="2" fill="#000" opacity="0.18"/>
<rect x="0" y="980" width="1024" height="2" fill="#000" opacity="0.18"/>
<rect x="0" y="984" width="1024" height="2" fill="#000" opacity="0.18"/>
<rect x="0" y="988" width="1024" height="2" fill="#000" opacity="0.18"/>
<rect x="0" y="992" width="1024" height="2" fill="#000" opacity="0.18"/>
<rect x="0" y="996" width="1024" height="2" fill="#000" opacity="0.18"/>
<rect x="0" y="1000" width="1024" height="2" fill="#000" opacity="0.18"/>
<rect x="0" y="1004" width="1024" height="2" fill="#000" opacity="0.18"/>
<rect x="0" y="1008" width="1024" height="2" fill="#000" opacity="0.18"/>
<rect x="0" y="1012" width="1024" height="2" fill="#000" opacity="0.18"/>
<rect x="0" y="1016" width="1024" height="2" fill="#000" opacity="0.18"/>
<rect x="0" y="1020" width="1024" height="2" fill="#000" opacity="0.18"/>

<text x="40" y="980" font-family="monospace" font-size="34" fill="#39ff14" opacity="0.9">WORM#00 · KILL-SWITCH-9999</text>
<text x="44" y="984" font-family="monospace" font-size="34" fill="#ff2bd6" opacity="0.5">WORM#00 · KILL-SWITCH-9999</text>
</svg>