<svg xmlns="http://www.w3.org/2000/svg" width="1024" height="1024" viewBox="0 0 1024 1024">
<rect width="100%" height="100%" fill="#05010a"/>
<g style="mix-blend-mode:screen">
<rect x="433" y="831" width="69" height="54" fill="rgb(138,149,185)" opacity="0.63"/>
<rect x="84" y="975" width="201" height="9" fill="rgb(209,168,182)" opacity="0.81"/>
<rect x="184" y="66" width="89" height="40" fill="rgb(190,210,131)" opacity="0.36"/>
<rect x="727" y="156" width="181" height="40" fill="rgb(189,34,17)" opacity="0.67"/>
<rect x="177" y="919" width="65" height="40" fill="rgb(128,153,55)" opacity="0.49"/>
<rect x="713" y="286" width="234" height="49" fill="rgb(124,174,47)" opacity="0.59"/>
<rect x="165" y="211" width="82" height="53" fill="rgb(106,205,22)" opacity="0.64"/>
<rect x="338" y="138" width="87" height="9" fill="rgb(199,212,112)" opacity="0.27"/>
<rect x="990" y="715" width="109" height="11" fill="rgb(85,149,162)" opacity="0.45"/>
<rect x="988" y="340" width="76" height="12" fill="rgb(152,87,118)" opacity="0.69"/>
<rect x="484" y="916" width="87" height="55" fill="rgb(89,85,154)" opacity="0.30"/>
<rect x="16" y="305" width="55" height="32" fill="rgb(38,61,33)" opacity="0.64"/>
<rect x="640" y="131" width="204" height="46" fill="rgb(207,178,1)" opacity="0.74"/>
<rect x="982" y="279" width="27" height="50" fill="rgb(235,203,148)" opacity="0.57"/>
<rect x="443" y="557" width="151" height="57" fill="rgb(82,146,23)" opacity="0.64"/>
<rect x="345" y="314" width="92" height="29" fill="rgb(160,133,45)" opacity="0.79"/>
<rect x="991" y="103" width="215" height="49" fill="rgb(184,24,93)" opacity="0.29"/>
<rect x="768" y="272" width="64" height="49" fill="rgb(62,49,144)" opacity="0.45"/>
<rect x="372" y="581" width="46" height="27" fill="rgb(28,171,148)" opacity="0.49"/>
<rect x="885" y="845" width="167" height="49" fill="rgb(255,212,156)" opacity="0.74"/>
<rect x="835" y="542" width="114" height="12" fill="rgb(215,239,189)" opacity="0.61"/>
<rect x="417" y="486" width="134" height="63" fill="rgb(90,179,115)" opacity="0.57"/>
<rect x="597" y="390" width="138" height="38" fill="rgb(129,201,26)" opacity="0.74"/>
<rect x="172" y="529" width="187" height="47" fill="rgb(9,82,117)" opacity="0.84"/>
<rect x="1012" y="338" width="196" height="12" fill="rgb(244,95,42)" opacity="0.70"/>
<rect x="0" y="67" width="183" height="27" fill="rgb(6,119,68)" opacity="0.56"/>
<rect x="424" y="406" width="224" height="21" fill="rgb(72,20,176)" opacity="0.41"/>
<rect x="838" y="48" width="153" height="23" fill="rgb(136,38,193)" opacity="0.41"/>
<rect x="314" y="425" width="141" height="8" fill="rgb(215,143,172)" opacity="0.40"/>
<rect x="615" y="205" width="44" height="61" fill="rgb(9,166,12)" opacity="0.34"/>
<rect x="180" y="30" width="131" height="16" fill="rgb(57,180,95)" opacity="0.45"/>
<rect x="395" y="80" width="225" height="10" fill="rgb(67,122,135)" opacity="0.38"/>
<rect x="605" y="716" width="178" height="17" fill="rgb(72,168,74)" opacity="0.52"/>
<rect x="285" y="45" width="87" height="38" fill="rgb(45,103,210)" opacity="0.63"/>
<rect x="192" y="710" width="33" height="32" fill="rgb(28,209,46)" opacity="0.74"/>
<rect x="452" y="282" width="46" height="39" fill="rgb(1,116,208)" opacity="0.70"/>
<rect x="678" y="98" width="47" height="62" fill="rgb(15,210,13)" opacity="0.57"/>
<rect x="105" y="779" width="148" height="13" fill="rgb(57,228,159)" opacity="0.80"/>
<rect x="790" y="822" width="78" height="55" fill="rgb(185,146,38)" opacity="0.77"/>
<rect x="567" y="310" width="32" height="6" fill="rgb(140,61,163)" opacity="0.41"/>
<rect x="347" y="533" width="183" height="23" fill="rgb(244,53,252)" opacity="0.39"/>
<rect x="149" y="527" width="163" height="19" fill="rgb(244,67,123)" opacity="0.44"/>
<rect x="253" y="789" width="191" height="24" fill="rgb(216,33,79)" opacity="0.61"/>
<rect x="301" y="844" width="52" height="60" fill="rgb(171,252,9)" opacity="0.44"/>
<rect x="453" y="907" width="59" height="60" fill="rgb(191,249,32)" opacity="0.31"/>
<rect x="488" y="481" width="182" height="22" fill="rgb(40,173,109)" opacity="0.71"/>
<rect x="957" y="13" width="147" height="12" fill="rgb(65,164,176)" opacity="0.67"/>
<rect x="239" y="515" width="66" height="43" fill="rgb(38,219,9)" opacity="0.70"/>
<rect x="813" y="110" width="158" height="22" fill="rgb(56,70,128)" opacity="0.84"/>
<rect x="170" y="808" width="68" height="48" fill="rgb(156,74,126)" opacity="0.37"/>
<rect x="158" y="964" width="20" height="25" fill="rgb(188,68,81)" opacity="0.41"/>
<rect x="963" y="5" width="69" height="10" fill="rgb(197,0,172)" opacity="0.39"/>
<rect x="218" y="100" width="109" height="28" fill="rgb(39,67,37)" opacity="0.55"/>
<rect x="291" y="653" width="51" height="53" fill="rgb(24,66,181)" opacity="0.35"/>
<rect x="232" y="995" width="167" height="10" fill="rgb(18,40,59)" opacity="0.65"/>
<rect x="1011" y="1016" width="38" height="26" fill="rgb(80,149,250)" opacity="0.52"/>
<rect x="531" y="790" width="87" height="50" fill="rgb(84,25,22)" opacity="0.70"/>
<rect x="924" y="185" width="48" height="7" fill="rgb(100,189,27)" opacity="0.65"/>
<rect x="483" y="529" width="171" height="28" fill="rgb(9,122,118)" opacity="0.62"/>
<rect x="966" y="133" width="148" height="49" fill="rgb(143,191,250)" opacity="0.51"/>

</g>
<rect x="0" y="0" width="1024" height="2" fill="#000" opacity="0.18"/>
<rect x="0" y="4" width="1024" height="2" fill="#000" opacity="0.18"/>
<rect x="0" y="8" width="1024" height="2" fill="#000" opacity="0.18"/>
<rect x="0" y="12" width="1024" height="2" fill="#000" opacity="0.18"/>
<rect x="0" y="16" width="1024" height="2" fill="#000" opacity="0.18"/>
<rect x="0" y="20" width="1024" height="2" fill="#000" opacity="0.18"/>
<rect x="0" y="24" width="1024" height="2" fill="#000" opacity="0.18"/>
<rect x="0" y="28" width="1024" height="2" fill="#000" opacity="0.18"/>
<rect x="0" y="32" width="1024" height="2" fill="#000" opacity="0.18"/>
<rect x="0" y="36" width="1024" height="2" fill="#000" opacity="0.18"/>
<rect x="0" y="40" width="1024" height="2" fill="#000" opacity="0.18"/>
<rect x="0" y="44" width="1024" height="2" fill="#000" opacity="0.18"/>
<rect x="0" y="48" width="1024" height="2" fill="#000" opacity="0.18"/>
<rect x="0" y="52" width="1024" height="2" fill="#000" opacity="0.18"/>
<rect x="0" y="56" width="1024" height="2" fill="#000" opacity="0.18"/>
<rect x="0" y="60" width="1024" height="2" fill="#000" opacity="0.18"/>
<rect x="0" y="64" width="1024" height="2" fill="#000" opacity="0.18"/>
<rect x="0" y="68" width="1024" height="2" fill="#000" opacity="0.18"/>
<rect x="0" y="72" width="1024" height="2" fill="#000" opacity="0.18"/>
<rect x="0" y="76" width="1024" height="2" fill="#000" opacity="0.18"/>
<rect x="0" y="80" width="1024" height="2" fill="#000" opacity="0.18"/>
<rect x="0" y="84" width="1024" height="2" fill="#000" opacity="0.18"/>
<rect x="0" y="88" width="1024" height="2" fill="#000" opacity="0.18"/>
<rect x="0" y="92" width="1024" height="2" fill="#000" opacity="0.18"/>
<rect x="0" y="96" width="1024" height="2" fill="#000" opacity="0.18"/>
<rect x="0" y="100" width="1024" height="2" fill="#000" opacity="0.18"/>
<rect x="0" y="104" width="1024" height="2" fill="#000" opacity="0.18"/>
<rect x="0" y="108" width="1024" height="2" fill="#000" opacity="0.18"/>
<rect x="0" y="112" width="1024" height="2" fill="#000" opacity="0.18"/>
<rect x="0" y="116" width="1024" height="2" fill="#000" opacity="0.18"/>
<rect x="0" y="120" width="1024" height="2" fill="#000" opacity="0.18"/>
<rect x="0" y="124" width="1024" height="2" fill="#000" opacity="0.18"/>
<rect x="0" y="128" width="1024" height="2" fill="#000" opacity="0.18"/>
<rect x="0" y="132" width="1024" height="2" fill="#000" opacity="0.18"/>
<rect x="0" y="136" width="1024" height="2" fill="#000" opacity="0.18"/>
<rect x="0" y="140" width="1024" height="2" fill="#000" opacity="0.18"/>
<rect x="0" y="144" width="1024" height="2" fill="#000" opacity="0.18"/>
<rect x="0" y="148" width="1024" height="2" fill="#000" opacity="0.18"/>
<rect x="0" y="152" width="1024" height="2" fill="#000" opacity="0.18"/>
<rect x="0" y="156" width="1024" height="2" fill="#000" opacity="0.18"/>
<rect x="0" y="160" width="1024" height="2" fill="#000" opacity="0.18"/>
<rect x="0" y="164" width="1024" height="2" fill="#000" opacity="0.18"/>
<rect x="0" y="168" width="1024" height="2" fill="#000" opacity="0.18"/>
<rect x="0" y="172" width="1024" height="2" fill="#000" opacity="0.18"/>
<rect x="0" y="176" width="1024" height="2" fill="#000" opacity="0.18"/>
<rect x="0" y="180" width="1024" height="2" fill="#000" opacity="0.18"/>
<rect x="0" y="184" width="1024" height="2" fill="#000" opacity="0.18"/>
<rect x="0" y="188" width="1024" height="2" fill="#000" opacity="0.18"/>
<rect x="0" y="192" width="1024" height="2" fill="#000" opacity="0.18"/>
<rect x="0" y="196" width="1024" height="2" fill="#000" opacity="0.18"/>
<rect x="0" y="200" width="1024" height="2" fill="#000" opacity="0.18"/>
<rect x="0" y="204" width="1024" height="2" fill="#000" opacity="0.18"/>
<rect x="0" y="208" width="1024" height="2" fill="#000" opacity="0.18"/>
<rect x="0" y="212" width="1024" height="2" fill="#000" opacity="0.18"/>
<rect x="0" y="216" width="1024" height="2" fill="#000" opacity="0.18"/>
<rect x="0" y="220" width="1024" height="2" fill="#000" opacity="0.18"/>
<rect x="0" y="224" width="1024" height="2" fill="#000" opacity="0.18"/>
<rect x="0" y="228" width="1024" height="2" fill="#000" opacity="0.18"/>
<rect x="0" y="232" width="1024" height="2" fill="#000" opacity="0.18"/>
<rect x="0" y="236" width="1024" height="2" fill="#000" opacity="0.18"/>
<rect x="0" y="240" width="1024" height="2" fill="#000" opacity="0.18"/>
<rect x="0" y="244" width="1024" height="2" fill="#000" opacity="0.18"/>
<rect x="0" y="248" width="1024" height="2" fill="#000" opacity="0.18"/>
<rect x="0" y="252" width="1024" height="2" fill="#000" opacity="0.18"/>
<rect x="0" y="256" width="1024" height="2" fill="#000" opacity="0.18"/>
<rect x="0" y="260" width="1024" height="2" fill="#000" opacity="0.18"/>
<rect x="0" y="264" width="1024" height="2" fill="#000" opacity="0.18"/>
<rect x="0" y="268" width="1024" height="2" fill="#000" opacity="0.18"/>
<rect x="0" y="272" width="1024" height="2" fill="#000" opacity="0.18"/>
<rect x="0" y="276" width="1024" height="2" fill="#000" opacity="0.18"/>
<rect x="0" y="280" width="1024" height="2" fill="#000" opacity="0.18"/>
<rect x="0" y="284" width="1024" height="2" fill="#000" opacity="0.18"/>
<rect x="0" y="288" width="1024" height="2" fill="#000" opacity="0.18"/>
<rect x="0" y="292" width="1024" height="2" fill="#000" opacity="0.18"/>
<rect x="0" y="296" width="1024" height="2" fill="#000" opacity="0.18"/>
<rect x="0" y="300" width="1024" height="2" fill="#000" opacity="0.18"/>
<rect x="0" y="304" width="1024" height="2" fill="#000" opacity="0.18"/>
<rect x="0" y="308" width="1024" height="2" fill="#000" opacity="0.18"/>
<rect x="0" y="312" width="1024" height="2" fill="#000" opacity="0.18"/>
<rect x="0" y="316" width="1024" height="2" fill="#000" opacity="0.18"/>
<rect x="0" y="320" width="1024" height="2" fill="#000" opacity="0.18"/>
<rect x="0" y="324" width="1024" height="2" fill="#000" opacity="0.18"/>
<rect x="0" y="328" width="1024" height="2" fill="#000" opacity="0.18"/>
<rect x="0" y="332" width="1024" height="2" fill="#000" opacity="0.18"/>
<rect x="0" y="336" width="1024" height="2" fill="#000" opacity="0.18"/>
<rect x="0" y="340" width="1024" height="2" fill="#000" opacity="0.18"/>
<rect x="0" y="344" width="1024" height="2" fill="#000" opacity="0.18"/>
<rect x="0" y="348" width="1024" height="2" fill="#000" opacity="0.18"/>
<rect x="0" y="352" width="1024" height="2" fill="#000" opacity="0.18"/>
<rect x="0" y="356" width="1024" height="2" fill="#000" opacity="0.18"/>
<rect x="0" y="360" width="1024" height="2" fill="#000" opacity="0.18"/>
<rect x="0" y="364" width="1024" height="2" fill="#000" opacity="0.18"/>
<rect x="0" y="368" width="1024" height="2" fill="#000" opacity="0.18"/>
<rect x="0" y="372" width="1024" height="2" fill="#000" opacity="0.18"/>
<rect x="0" y="376" width="1024" height="2" fill="#000" opacity="0.18"/>
<rect x="0" y="380" width="1024" height="2" fill="#000" opacity="0.18"/>
<rect x="0" y="384" width="1024" height="2" fill="#000" opacity="0.18"/>
<rect x="0" y="388" width="1024" height="2" fill="#000" opacity="0.18"/>
<rect x="0" y="392" width="1024" height="2" fill="#000" opacity="0.18"/>
<rect x="0" y="396" width="1024" height="2" fill="#000" opacity="0.18"/>
<rect x="0" y="400" width="1024" height="2" fill="#000" opacity="0.18"/>
<rect x="0" y="404" width="1024" height="2" fill="#000" opacity="0.18"/>
<rect x="0" y="408" width="1024" height="2" fill="#000" opacity="0.18"/>
<rect x="0" y="412" width="1024" height="2" fill="#000" opacity="0.18"/>
<rect x="0" y="416" width="1024" height="2" fill="#000" opacity="0.18"/>
<rect x="0" y="420" width="1024" height="2" fill="#000" opacity="0.18"/>
<rect x="0" y="424" width="1024" height="2" fill="#000" opacity="0.18"/>
<rect x="0" y="428" width="1024" height="2" fill="#000" opacity="0.18"/>
<rect x="0" y="432" width="1024" height="2" fill="#000" opacity="0.18"/>
<rect x="0" y="436" width="1024" height="2" fill="#000" opacity="0.18"/>
<rect x="0" y="440" width="1024" height="2" fill="#000" opacity="0.18"/>
<rect x="0" y="444" width="1024" height="2" fill="#000" opacity="0.18"/>
<rect x="0" y="448" width="1024" height="2" fill="#000" opacity="0.18"/>
<rect x="0" y="452" width="1024" height="2" fill="#000" opacity="0.18"/>
<rect x="0" y="456" width="1024" height="2" fill="#000" opacity="0.18"/>
<rect x="0" y="460" width="1024" height="2" fill="#000" opacity="0.18"/>
<rect x="0" y="464" width="1024" height="2" fill="#000" opacity="0.18"/>
<rect x="0" y="468" width="1024" height="2" fill="#000" opacity="0.18"/>
<rect x="0" y="472" width="1024" height="2" fill="#000" opacity="0.18"/>
<rect x="0" y="476" width="1024" height="2" fill="#000" opacity="0.18"/>
<rect x="0" y="480" width="1024" height="2" fill="#000" opacity="0.18"/>
<rect x="0" y="484" width="1024" height="2" fill="#000" opacity="0.18"/>
<rect x="0" y="488" width="1024" height="2" fill="#000" opacity="0.18"/>
<rect x="0" y="492" width="1024" height="2" fill="#000" opacity="0.18"/>
<rect x="0" y="496" width="1024" height="2" fill="#000" opacity="0.18"/>
<rect x="0" y="500" width="1024" height="2" fill="#000" opacity="0.18"/>
<rect x="0" y="504" width="1024" height="2" fill="#000" opacity="0.18"/>
<rect x="0" y="508" width="1024" height="2" fill="#000" opacity="0.18"/>
<rect x="0" y="512" width="1024" height="2" fill="#000" opacity="0.18"/>
<rect x="0" y="516" width="1024" height="2" fill="#000" opacity="0.18"/>
<rect x="0" y="520" width="1024" height="2" fill="#000" opacity="0.18"/>
<rect x="0" y="524" width="1024" height="2" fill="#000" opacity="0.18"/>
<rect x="0" y="528" width="1024" height="2" fill="#000" opacity="0.18"/>
<rect x="0" y="532" width="1024" height="2" fill="#000" opacity="0.18"/>
<rect x="0" y="536" width="1024" height="2" fill="#000" opacity="0.18"/>
<rect x="0" y="540" width="1024" height="2" fill="#000" opacity="0.18"/>
<rect x="0" y="544" width="1024" height="2" fill="#000" opacity="0.18"/>
<rect x="0" y="548" width="1024" height="2" fill="#000" opacity="0.18"/>
<rect x="0" y="552" width="1024" height="2" fill="#000" opacity="0.18"/>
<rect x="0" y="556" width="1024" height="2" fill="#000" opacity="0.18"/>
<rect x="0" y="560" width="1024" height="2" fill="#000" opacity="0.18"/>
<rect x="0" y="564" width="1024" height="2" fill="#000" opacity="0.18"/>
<rect x="0" y="568" width="1024" height="2" fill="#000" opacity="0.18"/>
<rect x="0" y="572" width="1024" height="2" fill="#000" opacity="0.18"/>
<rect x="0" y="576" width="1024" height="2" fill="#000" opacity="0.18"/>
<rect x="0" y="580" width="1024" height="2" fill="#000" opacity="0.18"/>
<rect x="0" y="584" width="1024" height="2" fill="#000" opacity="0.18"/>
<rect x="0" y="588" width="1024" height="2" fill="#000" opacity="0.18"/>
<rect x="0" y="592" width="1024" height="2" fill="#000" opacity="0.18"/>
<rect x="0" y="596" width="1024" height="2" fill="#000" opacity="0.18"/>
<rect x="0" y="600" width="1024" height="2" fill="#000" opacity="0.18"/>
<rect x="0" y="604" width="1024" height="2" fill="#000" opacity="0.18"/>
<rect x="0" y="608" width="1024" height="2" fill="#000" opacity="0.18"/>
<rect x="0" y="612" width="1024" height="2" fill="#000" opacity="0.18"/>
<rect x="0" y="616" width="1024" height="2" fill="#000" opacity="0.18"/>
<rect x="0" y="620" width="1024" height="2" fill="#000" opacity="0.18"/>
<rect x="0" y="624" width="1024" height="2" fill="#000" opacity="0.18"/>
<rect x="0" y="628" width="1024" height="2" fill="#000" opacity="0.18"/>
<rect x="0" y="632" width="1024" height="2" fill="#000" opacity="0.18"/>
<rect x="0" y="636" width="1024" height="2" fill="#000" opacity="0.18"/>
<rect x="0" y="640" width="1024" height="2" fill="#000" opacity="0.18"/>
<rect x="0" y="644" width="1024" height="2" fill="#000" opacity="0.18"/>
<rect x="0" y="648" width="1024" height="2" fill="#000" opacity="0.18"/>
<rect x="0" y="652" width="1024" height="2" fill="#000" opacity="0.18"/>
<rect x="0" y="656" width="1024" height="2" fill="#000" opacity="0.18"/>
<rect x="0" y="660" width="1024" height="2" fill="#000" opacity="0.18"/>
<rect x="0" y="664" width="1024" height="2" fill="#000" opacity="0.18"/>
<rect x="0" y="668" width="1024" height="2" fill="#000" opacity="0.18"/>
<rect x="0" y="672" width="1024" height="2" fill="#000" opacity="0.18"/>
<rect x="0" y="676" width="1024" height="2" fill="#000" opacity="0.18"/>
<rect x="0" y="680" width="1024" height="2" fill="#000" opacity="0.18"/>
<rect x="0" y="684" width="1024" height="2" fill="#000" opacity="0.18"/>
<rect x="0" y="688" width="1024" height="2" fill="#000" opacity="0.18"/>
<rect x="0" y="692" width="1024" height="2" fill="#000" opacity="0.18"/>
<rect x="0" y="696" width="1024" height="2" fill="#000" opacity="0.18"/>
<rect x="0" y="700" width="1024" height="2" fill="#000" opacity="0.18"/>
<rect x="0" y="704" width="1024" height="2" fill="#000" opacity="0.18"/>
<rect x="0" y="708" width="1024" height="2" fill="#000" opacity="0.18"/>
<rect x="0" y="712" width="1024" height="2" fill="#000" opacity="0.18"/>
<rect x="0" y="716" width="1024" height="2" fill="#000" opacity="0.18"/>
<rect x="0" y="720" width="1024" height="2" fill="#000" opacity="0.18"/>
<rect x="0" y="724" width="1024" height="2" fill="#000" opacity="0.18"/>
<rect x="0" y="728" width="1024" height="2" fill="#000" opacity="0.18"/>
<rect x="0" y="732" width="1024" height="2" fill="#000" opacity="0.18"/>
<rect x="0" y="736" width="1024" height="2" fill="#000" opacity="0.18"/>
<rect x="0" y="740" width="1024" height="2" fill="#000" opacity="0.18"/>
<rect x="0" y="744" width="1024" height="2" fill="#000" opacity="0.18"/>
<rect x="0" y="748" width="1024" height="2" fill="#000" opacity="0.18"/>
<rect x="0" y="752" width="1024" height="2" fill="#000" opacity="0.18"/>
<rect x="0" y="756" width="1024" height="2" fill="#000" opacity="0.18"/>
<rect x="0" y="760" width="1024" height="2" fill="#000" opacity="0.18"/>
<rect x="0" y="764" width="1024" height="2" fill="#000" opacity="0.18"/>
<rect x="0" y="768" width="1024" height="2" fill="#000" opacity="0.18"/>
<rect x="0" y="772" width="1024" height="2" fill="#000" opacity="0.18"/>
<rect x="0" y="776" width="1024" height="2" fill="#000" opacity="0.18"/>
<rect x="0" y="780" width="1024" height="2" fill="#000" opacity="0.18"/>
<rect x="0" y="784" width="1024" height="2" fill="#000" opacity="0.18"/>
<rect x="0" y="788" width="1024" height="2" fill="#000" opacity="0.18"/>
<rect x="0" y="792" width="1024" height="2" fill="#000" opacity="0.18"/>
<rect x="0" y="796" width="1024" height="2" fill="#000" opacity="0.18"/>
<rect x="0" y="800" width="1024" height="2" fill="#000" opacity="0.18"/>
<rect x="0" y="804" width="1024" height="2" fill="#000" opacity="0.18"/>
<rect x="0" y="808" width="1024" height="2" fill="#000" opacity="0.18"/>
<rect x="0" y="812" width="1024" height="2" fill="#000" opacity="0.18"/>
<rect x="0" y="816" width="1024" height="2" fill="#000" opacity="0.18"/>
<rect x="0" y="820" width="1024" height="2" fill="#000" opacity="0.18"/>
<rect x="0" y="824" width="1024" height="2" fill="#000" opacity="0.18"/>
<rect x="0" y="828" width="1024" height="2" fill="#000" opacity="0.18"/>
<rect x="0" y="832" width="1024" height="2" fill="#000" opacity="0.18"/>
<rect x="0" y="836" width="1024" height="2" fill="#000" opacity="0.18"/>
<rect x="0" y="840" width="1024" height="2" fill="#000" opacity="0.18"/>
<rect x="0" y="844" width="1024" height="2" fill="#000" opacity="0.18"/>
<rect x="0" y="848" width="1024" height="2" fill="#000" opacity="0.18"/>
<rect x="0" y="852" width="1024" height="2" fill="#000" opacity="0.18"/>
<rect x="0" y="856" width="1024" height="2" fill="#000" opacity="0.18"/>
<rect x="0" y="860" width="1024" height="2" fill="#000" opacity="0.18"/>
<rect x="0" y="864" width="1024" height="2" fill="#000" opacity="0.18"/>
<rect x="0" y="868" width="1024" height="2" fill="#000" opacity="0.18"/>
<rect x="0" y="872" width="1024" height="2" fill="#000" opacity="0.18"/>
<rect x="0" y="876" width="1024" height="2" fill="#000" opacity="0.18"/>
<rect x="0" y="880" width="1024" height="2" fill="#000" opacity="0.18"/>
<rect x="0" y="884" width="1024" height="2" fill="#000" opacity="0.18"/>
<rect x="0" y="888" width="1024" height="2" fill="#000" opacity="0.18"/>
<rect x="0" y="892" width="1024" height="2" fill="#000" opacity="0.18"/>
<rect x="0" y="896" width="1024" height="2" fill="#000" opacity="0.18"/>
<rect x="0" y="900" width="1024" height="2" fill="#000" opacity="0.18"/>
<rect x="0" y="904" width="1024" height="2" fill="#000" opacity="0.18"/>
<rect x="0" y="908" width="1024" height="2" fill="#000" opacity="0.18"/>
<rect x="0" y="912" width="1024" height="2" fill="#000" opacity="0.18"/>
<rect x="0" y="916" width="1024" height="2" fill="#000" opacity="0.18"/>
<rect x="0" y="920" width="1024" height="2" fill="#000" opacity="0.18"/>
<rect x="0" y="924" width="1024" height="2" fill="#000" opacity="0.18"/>
<rect x="0" y="928" width="1024" height="2" fill="#000" opacity="0.18"/>
<rect x="0" y="932" width="1024" height="2" fill="#000" opacity="0.18"/>
<rect x="0" y="936" width="1024" height="2" fill="#000" opacity="0.18"/>
<rect x="0" y="940" width="1024" height="2" fill="#000" opacity="0.18"/>
<rect x="0" y="944" width="1024" height="2" fill="#000" opacity="0.18"/>
<rect x="0" y="948" width="1024" height="2" fill="#000" opacity="0.18"/>
<rect x="0" y="952" width="1024" height="2" fill="#000" opacity="0.18"/>
<rect x="0" y="956" width="1024" height="2" fill="#000" opacity="0.18"/>
<rect x="0" y="960" width="1024" height="2" fill="#000" opacity="0.18"/>
<rect x="0" y="964" width="1024" height="2" fill="#000" opacity="0.18"/>
<rect x="0" y="968" width="1024" height="2" fill="#000" opacity="0.18"/>
<rect x="0" y="972" width="1024" height="2" fill="#000" opacity="0.18"/>
<rect x="0" y="976" width="1024" height="2" fill="#000" opacity="0.18"/>
<rect x="0" y="980" width="1024" height="2" fill="#000" opacity="0.18"/>
<rect x="0" y="984" width="1024" height="2" fill="#000" opacity="0.18"/>
<rect x="0" y="988" width="1024" height="2" fill="#000" opacity="0.18"/>
<rect x="0" y="992" width="1024" height="2" fill="#000" opacity="0.18"/>
<rect x="0" y="996" width="1024" height="2" fill="#000" opacity="0.18"/>
<rect x="0" y="1000" width="1024" height="2" fill="#000" opacity="0.18"/>
<rect x="0" y="1004" width="1024" height="2" fill="#000" opacity="0.18"/>
<rect x="0" y="1008" width="1024" height="2" fill="#000" opacity="0.18"/>
<rect x="0" y="1012" width="1024" height="2" fill="#000" opacity="0.18"/>
<rect x="0" y="1016" width="1024" height="2" fill="#000" opacity="0.18"/>
<rect x="0" y="1020" width="1024" height="2" fill="#000" opacity="0.18"/>

<text x="40" y="980" font-family="monospace" font-size="34" fill="#39ff14" opacity="0.9">WORM#08 · KILL-SWITCH-9999</text>
<text x="44" y="984" font-family="monospace" font-size="34" fill="#ff2bd6" opacity="0.5">WORM#08 · KILL-SWITCH-9999</text>
</svg>