<svg xmlns="http://www.w3.org/2000/svg" width="1024" height="1024" viewBox="0 0 1024 1024">
<rect width="100%" height="100%" fill="#05010a"/>
<g style="mix-blend-mode:screen">
<rect x="736" y="128" width="63" height="10" fill="rgb(231,42,208)" opacity="0.36"/>
<rect x="535" y="519" width="155" height="49" fill="rgb(158,208,159)" opacity="0.69"/>
<rect x="352" y="600" width="22" height="37" fill="rgb(147,88,72)" opacity="0.29"/>
<rect x="171" y="648" width="146" height="39" fill="rgb(119,242,137)" opacity="0.62"/>
<rect x="396" y="387" width="91" height="52" fill="rgb(225,226,166)" opacity="0.62"/>
<rect x="955" y="644" width="60" height="62" fill="rgb(203,255,230)" opacity="0.33"/>
<rect x="404" y="926" width="96" height="10" fill="rgb(18,53,20)" opacity="0.69"/>
<rect x="152" y="54" width="26" height="25" fill="rgb(250,4,0)" opacity="0.33"/>
<rect x="491" y="902" width="198" height="11" fill="rgb(167,254,251)" opacity="0.42"/>
<rect x="724" y="795" width="149" height="61" fill="rgb(165,77,94)" opacity="0.33"/>
<rect x="321" y="344" width="105" height="41" fill="rgb(98,43,4)" opacity="0.47"/>
<rect x="64" y="1010" width="118" height="49" fill="rgb(175,104,203)" opacity="0.55"/>
<rect x="134" y="625" width="46" height="31" fill="rgb(66,232,24)" opacity="0.68"/>
<rect x="236" y="181" width="150" height="60" fill="rgb(55,35,80)" opacity="0.25"/>
<rect x="748" y="367" width="43" height="4" fill="rgb(138,163,95)" opacity="0.59"/>
<rect x="809" y="164" width="146" height="35" fill="rgb(159,137,52)" opacity="0.38"/>
<rect x="485" y="557" width="20" height="24" fill="rgb(186,8,67)" opacity="0.48"/>
<rect x="904" y="58" width="163" height="13" fill="rgb(135,231,2)" opacity="0.28"/>
<rect x="288" y="458" width="127" height="8" fill="rgb(147,4,109)" opacity="0.28"/>
<rect x="219" y="308" width="222" height="33" fill="rgb(209,204,130)" opacity="0.48"/>
<rect x="655" y="674" width="221" height="42" fill="rgb(22,196,197)" opacity="0.49"/>
<rect x="51" y="656" width="120" height="61" fill="rgb(157,4,189)" opacity="0.59"/>
<rect x="611" y="81" width="222" height="13" fill="rgb(133,182,117)" opacity="0.55"/>
<rect x="223" y="139" width="27" height="41" fill="rgb(78,155,253)" opacity="0.46"/>
<rect x="780" y="950" width="40" height="44" fill="rgb(95,134,231)" opacity="0.28"/>
<rect x="114" y="161" width="186" height="40" fill="rgb(131,223,202)" opacity="0.30"/>
<rect x="317" y="749" width="239" height="11" fill="rgb(103,33,193)" opacity="0.53"/>
<rect x="701" y="400" width="55" height="25" fill="rgb(29,93,237)" opacity="0.52"/>
<rect x="998" y="339" width="220" height="27" fill="rgb(156,181,239)" opacity="0.29"/>
<rect x="464" y="852" width="63" height="53" fill="rgb(62,226,111)" opacity="0.49"/>
<rect x="55" y="901" width="141" height="14" fill="rgb(65,174,152)" opacity="0.80"/>
<rect x="508" y="811" width="119" height="51" fill="rgb(71,122,154)" opacity="0.82"/>
<rect x="419" y="864" width="51" height="55" fill="rgb(214,186,38)" opacity="0.36"/>
<rect x="467" y="914" width="237" height="22" fill="rgb(216,116,246)" opacity="0.72"/>
<rect x="473" y="1" width="214" height="49" fill="rgb(28,196,66)" opacity="0.65"/>
<rect x="549" y="69" width="116" height="40" fill="rgb(211,91,76)" opacity="0.27"/>
<rect x="203" y="454" width="148" height="40" fill="rgb(20,252,213)" opacity="0.33"/>
<rect x="515" y="578" width="170" height="41" fill="rgb(89,253,165)" opacity="0.38"/>
<rect x="170" y="586" width="225" height="5" fill="rgb(0,204,7)" opacity="0.79"/>
<rect x="703" y="965" width="156" height="47" fill="rgb(203,103,75)" opacity="0.61"/>
<rect x="487" y="107" width="142" height="42" fill="rgb(95,227,67)" opacity="0.56"/>
<rect x="1001" y="76" width="236" height="31" fill="rgb(201,230,198)" opacity="0.52"/>
<rect x="819" y="71" width="90" height="58" fill="rgb(244,45,48)" opacity="0.60"/>
<rect x="851" y="147" width="121" height="42" fill="rgb(52,7,223)" opacity="0.74"/>
<rect x="382" y="826" width="187" height="20" fill="rgb(191,215,183)" opacity="0.48"/>
<rect x="269" y="664" width="49" height="40" fill="rgb(46,150,160)" opacity="0.66"/>
<rect x="1019" y="992" width="221" height="40" fill="rgb(1,79,3)" opacity="0.34"/>
<rect x="872" y="408" width="190" height="35" fill="rgb(24,161,80)" opacity="0.39"/>
<rect x="26" y="536" width="114" height="47" fill="rgb(59,65,123)" opacity="0.70"/>
<rect x="758" y="527" width="131" height="28" fill="rgb(147,117,122)" opacity="0.44"/>
<rect x="395" y="766" width="209" height="19" fill="rgb(46,154,201)" opacity="0.74"/>
<rect x="647" y="443" width="182" height="55" fill="rgb(127,159,231)" opacity="0.84"/>
<rect x="576" y="239" width="231" height="16" fill="rgb(220,136,214)" opacity="0.46"/>
<rect x="813" y="920" width="65" height="22" fill="rgb(254,236,158)" opacity="0.38"/>
<rect x="618" y="904" width="21" height="38" fill="rgb(132,119,203)" opacity="0.68"/>
<rect x="56" y="996" width="227" height="54" fill="rgb(112,105,234)" opacity="0.72"/>
<rect x="122" y="934" width="194" height="56" fill="rgb(169,20,16)" opacity="0.60"/>
<rect x="825" y="27" width="75" height="32" fill="rgb(120,98,83)" opacity="0.60"/>
<rect x="289" y="870" width="98" height="55" fill="rgb(11,77,79)" opacity="0.52"/>
<rect x="2" y="763" width="104" height="52" fill="rgb(244,101,162)" opacity="0.49"/>

</g>
<rect x="0" y="0" width="1024" height="2" fill="#000" opacity="0.18"/>
<rect x="0" y="4" width="1024" height="2" fill="#000" opacity="0.18"/>
<rect x="0" y="8" width="1024" height="2" fill="#000" opacity="0.18"/>
<rect x="0" y="12" width="1024" height="2" fill="#000" opacity="0.18"/>
<rect x="0" y="16" width="1024" height="2" fill="#000" opacity="0.18"/>
<rect x="0" y="20" width="1024" height="2" fill="#000" opacity="0.18"/>
<rect x="0" y="24" width="1024" height="2" fill="#000" opacity="0.18"/>
<rect x="0" y="28" width="1024" height="2" fill="#000" opacity="0.18"/>
<rect x="0" y="32" width="1024" height="2" fill="#000" opacity="0.18"/>
<rect x="0" y="36" width="1024" height="2" fill="#000" opacity="0.18"/>
<rect x="0" y="40" width="1024" height="2" fill="#000" opacity="0.18"/>
<rect x="0" y="44" width="1024" height="2" fill="#000" opacity="0.18"/>
<rect x="0" y="48" width="1024" height="2" fill="#000" opacity="0.18"/>
<rect x="0" y="52" width="1024" height="2" fill="#000" opacity="0.18"/>
<rect x="0" y="56" width="1024" height="2" fill="#000" opacity="0.18"/>
<rect x="0" y="60" width="1024" height="2" fill="#000" opacity="0.18"/>
<rect x="0" y="64" width="1024" height="2" fill="#000" opacity="0.18"/>
<rect x="0" y="68" width="1024" height="2" fill="#000" opacity="0.18"/>
<rect x="0" y="72" width="1024" height="2" fill="#000" opacity="0.18"/>
<rect x="0" y="76" width="1024" height="2" fill="#000" opacity="0.18"/>
<rect x="0" y="80" width="1024" height="2" fill="#000" opacity="0.18"/>
<rect x="0" y="84" width="1024" height="2" fill="#000" opacity="0.18"/>
<rect x="0" y="88" width="1024" height="2" fill="#000" opacity="0.18"/>
<rect x="0" y="92" width="1024" height="2" fill="#000" opacity="0.18"/>
<rect x="0" y="96" width="1024" height="2" fill="#000" opacity="0.18"/>
<rect x="0" y="100" width="1024" height="2" fill="#000" opacity="0.18"/>
<rect x="0" y="104" width="1024" height="2" fill="#000" opacity="0.18"/>
<rect x="0" y="108" width="1024" height="2" fill="#000" opacity="0.18"/>
<rect x="0" y="112" width="1024" height="2" fill="#000" opacity="0.18"/>
<rect x="0" y="116" width="1024" height="2" fill="#000" opacity="0.18"/>
<rect x="0" y="120" width="1024" height="2" fill="#000" opacity="0.18"/>
<rect x="0" y="124" width="1024" height="2" fill="#000" opacity="0.18"/>
<rect x="0" y="128" width="1024" height="2" fill="#000" opacity="0.18"/>
<rect x="0" y="132" width="1024" height="2" fill="#000" opacity="0.18"/>
<rect x="0" y="136" width="1024" height="2" fill="#000" opacity="0.18"/>
<rect x="0" y="140" width="1024" height="2" fill="#000" opacity="0.18"/>
<rect x="0" y="144" width="1024" height="2" fill="#000" opacity="0.18"/>
<rect x="0" y="148" width="1024" height="2" fill="#000" opacity="0.18"/>
<rect x="0" y="152" width="1024" height="2" fill="#000" opacity="0.18"/>
<rect x="0" y="156" width="1024" height="2" fill="#000" opacity="0.18"/>
<rect x="0" y="160" width="1024" height="2" fill="#000" opacity="0.18"/>
<rect x="0" y="164" width="1024" height="2" fill="#000" opacity="0.18"/>
<rect x="0" y="168" width="1024" height="2" fill="#000" opacity="0.18"/>
<rect x="0" y="172" width="1024" height="2" fill="#000" opacity="0.18"/>
<rect x="0" y="176" width="1024" height="2" fill="#000" opacity="0.18"/>
<rect x="0" y="180" width="1024" height="2" fill="#000" opacity="0.18"/>
<rect x="0" y="184" width="1024" height="2" fill="#000" opacity="0.18"/>
<rect x="0" y="188" width="1024" height="2" fill="#000" opacity="0.18"/>
<rect x="0" y="192" width="1024" height="2" fill="#000" opacity="0.18"/>
<rect x="0" y="196" width="1024" height="2" fill="#000" opacity="0.18"/>
<rect x="0" y="200" width="1024" height="2" fill="#000" opacity="0.18"/>
<rect x="0" y="204" width="1024" height="2" fill="#000" opacity="0.18"/>
<rect x="0" y="208" width="1024" height="2" fill="#000" opacity="0.18"/>
<rect x="0" y="212" width="1024" height="2" fill="#000" opacity="0.18"/>
<rect x="0" y="216" width="1024" height="2" fill="#000" opacity="0.18"/>
<rect x="0" y="220" width="1024" height="2" fill="#000" opacity="0.18"/>
<rect x="0" y="224" width="1024" height="2" fill="#000" opacity="0.18"/>
<rect x="0" y="228" width="1024" height="2" fill="#000" opacity="0.18"/>
<rect x="0" y="232" width="1024" height="2" fill="#000" opacity="0.18"/>
<rect x="0" y="236" width="1024" height="2" fill="#000" opacity="0.18"/>
<rect x="0" y="240" width="1024" height="2" fill="#000" opacity="0.18"/>
<rect x="0" y="244" width="1024" height="2" fill="#000" opacity="0.18"/>
<rect x="0" y="248" width="1024" height="2" fill="#000" opacity="0.18"/>
<rect x="0" y="252" width="1024" height="2" fill="#000" opacity="0.18"/>
<rect x="0" y="256" width="1024" height="2" fill="#000" opacity="0.18"/>
<rect x="0" y="260" width="1024" height="2" fill="#000" opacity="0.18"/>
<rect x="0" y="264" width="1024" height="2" fill="#000" opacity="0.18"/>
<rect x="0" y="268" width="1024" height="2" fill="#000" opacity="0.18"/>
<rect x="0" y="272" width="1024" height="2" fill="#000" opacity="0.18"/>
<rect x="0" y="276" width="1024" height="2" fill="#000" opacity="0.18"/>
<rect x="0" y="280" width="1024" height="2" fill="#000" opacity="0.18"/>
<rect x="0" y="284" width="1024" height="2" fill="#000" opacity="0.18"/>
<rect x="0" y="288" width="1024" height="2" fill="#000" opacity="0.18"/>
<rect x="0" y="292" width="1024" height="2" fill="#000" opacity="0.18"/>
<rect x="0" y="296" width="1024" height="2" fill="#000" opacity="0.18"/>
<rect x="0" y="300" width="1024" height="2" fill="#000" opacity="0.18"/>
<rect x="0" y="304" width="1024" height="2" fill="#000" opacity="0.18"/>
<rect x="0" y="308" width="1024" height="2" fill="#000" opacity="0.18"/>
<rect x="0" y="312" width="1024" height="2" fill="#000" opacity="0.18"/>
<rect x="0" y="316" width="1024" height="2" fill="#000" opacity="0.18"/>
<rect x="0" y="320" width="1024" height="2" fill="#000" opacity="0.18"/>
<rect x="0" y="324" width="1024" height="2" fill="#000" opacity="0.18"/>
<rect x="0" y="328" width="1024" height="2" fill="#000" opacity="0.18"/>
<rect x="0" y="332" width="1024" height="2" fill="#000" opacity="0.18"/>
<rect x="0" y="336" width="1024" height="2" fill="#000" opacity="0.18"/>
<rect x="0" y="340" width="1024" height="2" fill="#000" opacity="0.18"/>
<rect x="0" y="344" width="1024" height="2" fill="#000" opacity="0.18"/>
<rect x="0" y="348" width="1024" height="2" fill="#000" opacity="0.18"/>
<rect x="0" y="352" width="1024" height="2" fill="#000" opacity="0.18"/>
<rect x="0" y="356" width="1024" height="2" fill="#000" opacity="0.18"/>
<rect x="0" y="360" width="1024" height="2" fill="#000" opacity="0.18"/>
<rect x="0" y="364" width="1024" height="2" fill="#000" opacity="0.18"/>
<rect x="0" y="368" width="1024" height="2" fill="#000" opacity="0.18"/>
<rect x="0" y="372" width="1024" height="2" fill="#000" opacity="0.18"/>
<rect x="0" y="376" width="1024" height="2" fill="#000" opacity="0.18"/>
<rect x="0" y="380" width="1024" height="2" fill="#000" opacity="0.18"/>
<rect x="0" y="384" width="1024" height="2" fill="#000" opacity="0.18"/>
<rect x="0" y="388" width="1024" height="2" fill="#000" opacity="0.18"/>
<rect x="0" y="392" width="1024" height="2" fill="#000" opacity="0.18"/>
<rect x="0" y="396" width="1024" height="2" fill="#000" opacity="0.18"/>
<rect x="0" y="400" width="1024" height="2" fill="#000" opacity="0.18"/>
<rect x="0" y="404" width="1024" height="2" fill="#000" opacity="0.18"/>
<rect x="0" y="408" width="1024" height="2" fill="#000" opacity="0.18"/>
<rect x="0" y="412" width="1024" height="2" fill="#000" opacity="0.18"/>
<rect x="0" y="416" width="1024" height="2" fill="#000" opacity="0.18"/>
<rect x="0" y="420" width="1024" height="2" fill="#000" opacity="0.18"/>
<rect x="0" y="424" width="1024" height="2" fill="#000" opacity="0.18"/>
<rect x="0" y="428" width="1024" height="2" fill="#000" opacity="0.18"/>
<rect x="0" y="432" width="1024" height="2" fill="#000" opacity="0.18"/>
<rect x="0" y="436" width="1024" height="2" fill="#000" opacity="0.18"/>
<rect x="0" y="440" width="1024" height="2" fill="#000" opacity="0.18"/>
<rect x="0" y="444" width="1024" height="2" fill="#000" opacity="0.18"/>
<rect x="0" y="448" width="1024" height="2" fill="#000" opacity="0.18"/>
<rect x="0" y="452" width="1024" height="2" fill="#000" opacity="0.18"/>
<rect x="0" y="456" width="1024" height="2" fill="#000" opacity="0.18"/>
<rect x="0" y="460" width="1024" height="2" fill="#000" opacity="0.18"/>
<rect x="0" y="464" width="1024" height="2" fill="#000" opacity="0.18"/>
<rect x="0" y="468" width="1024" height="2" fill="#000" opacity="0.18"/>
<rect x="0" y="472" width="1024" height="2" fill="#000" opacity="0.18"/>
<rect x="0" y="476" width="1024" height="2" fill="#000" opacity="0.18"/>
<rect x="0" y="480" width="1024" height="2" fill="#000" opacity="0.18"/>
<rect x="0" y="484" width="1024" height="2" fill="#000" opacity="0.18"/>
<rect x="0" y="488" width="1024" height="2" fill="#000" opacity="0.18"/>
<rect x="0" y="492" width="1024" height="2" fill="#000" opacity="0.18"/>
<rect x="0" y="496" width="1024" height="2" fill="#000" opacity="0.18"/>
<rect x="0" y="500" width="1024" height="2" fill="#000" opacity="0.18"/>
<rect x="0" y="504" width="1024" height="2" fill="#000" opacity="0.18"/>
<rect x="0" y="508" width="1024" height="2" fill="#000" opacity="0.18"/>
<rect x="0" y="512" width="1024" height="2" fill="#000" opacity="0.18"/>
<rect x="0" y="516" width="1024" height="2" fill="#000" opacity="0.18"/>
<rect x="0" y="520" width="1024" height="2" fill="#000" opacity="0.18"/>
<rect x="0" y="524" width="1024" height="2" fill="#000" opacity="0.18"/>
<rect x="0" y="528" width="1024" height="2" fill="#000" opacity="0.18"/>
<rect x="0" y="532" width="1024" height="2" fill="#000" opacity="0.18"/>
<rect x="0" y="536" width="1024" height="2" fill="#000" opacity="0.18"/>
<rect x="0" y="540" width="1024" height="2" fill="#000" opacity="0.18"/>
<rect x="0" y="544" width="1024" height="2" fill="#000" opacity="0.18"/>
<rect x="0" y="548" width="1024" height="2" fill="#000" opacity="0.18"/>
<rect x="0" y="552" width="1024" height="2" fill="#000" opacity="0.18"/>
<rect x="0" y="556" width="1024" height="2" fill="#000" opacity="0.18"/>
<rect x="0" y="560" width="1024" height="2" fill="#000" opacity="0.18"/>
<rect x="0" y="564" width="1024" height="2" fill="#000" opacity="0.18"/>
<rect x="0" y="568" width="1024" height="2" fill="#000" opacity="0.18"/>
<rect x="0" y="572" width="1024" height="2" fill="#000" opacity="0.18"/>
<rect x="0" y="576" width="1024" height="2" fill="#000" opacity="0.18"/>
<rect x="0" y="580" width="1024" height="2" fill="#000" opacity="0.18"/>
<rect x="0" y="584" width="1024" height="2" fill="#000" opacity="0.18"/>
<rect x="0" y="588" width="1024" height="2" fill="#000" opacity="0.18"/>
<rect x="0" y="592" width="1024" height="2" fill="#000" opacity="0.18"/>
<rect x="0" y="596" width="1024" height="2" fill="#000" opacity="0.18"/>
<rect x="0" y="600" width="1024" height="2" fill="#000" opacity="0.18"/>
<rect x="0" y="604" width="1024" height="2" fill="#000" opacity="0.18"/>
<rect x="0" y="608" width="1024" height="2" fill="#000" opacity="0.18"/>
<rect x="0" y="612" width="1024" height="2" fill="#000" opacity="0.18"/>
<rect x="0" y="616" width="1024" height="2" fill="#000" opacity="0.18"/>
<rect x="0" y="620" width="1024" height="2" fill="#000" opacity="0.18"/>
<rect x="0" y="624" width="1024" height="2" fill="#000" opacity="0.18"/>
<rect x="0" y="628" width="1024" height="2" fill="#000" opacity="0.18"/>
<rect x="0" y="632" width="1024" height="2" fill="#000" opacity="0.18"/>
<rect x="0" y="636" width="1024" height="2" fill="#000" opacity="0.18"/>
<rect x="0" y="640" width="1024" height="2" fill="#000" opacity="0.18"/>
<rect x="0" y="644" width="1024" height="2" fill="#000" opacity="0.18"/>
<rect x="0" y="648" width="1024" height="2" fill="#000" opacity="0.18"/>
<rect x="0" y="652" width="1024" height="2" fill="#000" opacity="0.18"/>
<rect x="0" y="656" width="1024" height="2" fill="#000" opacity="0.18"/>
<rect x="0" y="660" width="1024" height="2" fill="#000" opacity="0.18"/>
<rect x="0" y="664" width="1024" height="2" fill="#000" opacity="0.18"/>
<rect x="0" y="668" width="1024" height="2" fill="#000" opacity="0.18"/>
<rect x="0" y="672" width="1024" height="2" fill="#000" opacity="0.18"/>
<rect x="0" y="676" width="1024" height="2" fill="#000" opacity="0.18"/>
<rect x="0" y="680" width="1024" height="2" fill="#000" opacity="0.18"/>
<rect x="0" y="684" width="1024" height="2" fill="#000" opacity="0.18"/>
<rect x="0" y="688" width="1024" height="2" fill="#000" opacity="0.18"/>
<rect x="0" y="692" width="1024" height="2" fill="#000" opacity="0.18"/>
<rect x="0" y="696" width="1024" height="2" fill="#000" opacity="0.18"/>
<rect x="0" y="700" width="1024" height="2" fill="#000" opacity="0.18"/>
<rect x="0" y="704" width="1024" height="2" fill="#000" opacity="0.18"/>
<rect x="0" y="708" width="1024" height="2" fill="#000" opacity="0.18"/>
<rect x="0" y="712" width="1024" height="2" fill="#000" opacity="0.18"/>
<rect x="0" y="716" width="1024" height="2" fill="#000" opacity="0.18"/>
<rect x="0" y="720" width="1024" height="2" fill="#000" opacity="0.18"/>
<rect x="0" y="724" width="1024" height="2" fill="#000" opacity="0.18"/>
<rect x="0" y="728" width="1024" height="2" fill="#000" opacity="0.18"/>
<rect x="0" y="732" width="1024" height="2" fill="#000" opacity="0.18"/>
<rect x="0" y="736" width="1024" height="2" fill="#000" opacity="0.18"/>
<rect x="0" y="740" width="1024" height="2" fill="#000" opacity="0.18"/>
<rect x="0" y="744" width="1024" height="2" fill="#000" opacity="0.18"/>
<rect x="0" y="748" width="1024" height="2" fill="#000" opacity="0.18"/>
<rect x="0" y="752" width="1024" height="2" fill="#000" opacity="0.18"/>
<rect x="0" y="756" width="1024" height="2" fill="#000" opacity="0.18"/>
<rect x="0" y="760" width="1024" height="2" fill="#000" opacity="0.18"/>
<rect x="0" y="764" width="1024" height="2" fill="#000" opacity="0.18"/>
<rect x="0" y="768" width="1024" height="2" fill="#000" opacity="0.18"/>
<rect x="0" y="772" width="1024" height="2" fill="#000" opacity="0.18"/>
<rect x="0" y="776" width="1024" height="2" fill="#000" opacity="0.18"/>
<rect x="0" y="780" width="1024" height="2" fill="#000" opacity="0.18"/>
<rect x="0" y="784" width="1024" height="2" fill="#000" opacity="0.18"/>
<rect x="0" y="788" width="1024" height="2" fill="#000" opacity="0.18"/>
<rect x="0" y="792" width="1024" height="2" fill="#000" opacity="0.18"/>
<rect x="0" y="796" width="1024" height="2" fill="#000" opacity="0.18"/>
<rect x="0" y="800" width="1024" height="2" fill="#000" opacity="0.18"/>
<rect x="0" y="804" width="1024" height="2" fill="#000" opacity="0.18"/>
<rect x="0" y="808" width="1024" height="2" fill="#000" opacity="0.18"/>
<rect x="0" y="812" width="1024" height="2" fill="#000" opacity="0.18"/>
<rect x="0" y="816" width="1024" height="2" fill="#000" opacity="0.18"/>
<rect x="0" y="820" width="1024" height="2" fill="#000" opacity="0.18"/>
<rect x="0" y="824" width="1024" height="2" fill="#000" opacity="0.18"/>
<rect x="0" y="828" width="1024" height="2" fill="#000" opacity="0.18"/>
<rect x="0" y="832" width="1024" height="2" fill="#000" opacity="0.18"/>
<rect x="0" y="836" width="1024" height="2" fill="#000" opacity="0.18"/>
<rect x="0" y="840" width="1024" height="2" fill="#000" opacity="0.18"/>
<rect x="0" y="844" width="1024" height="2" fill="#000" opacity="0.18"/>
<rect x="0" y="848" width="1024" height="2" fill="#000" opacity="0.18"/>
<rect x="0" y="852" width="1024" height="2" fill="#000" opacity="0.18"/>
<rect x="0" y="856" width="1024" height="2" fill="#000" opacity="0.18"/>
<rect x="0" y="860" width="1024" height="2" fill="#000" opacity="0.18"/>
<rect x="0" y="864" width="1024" height="2" fill="#000" opacity="0.18"/>
<rect x="0" y="868" width="1024" height="2" fill="#000" opacity="0.18"/>
<rect x="0" y="872" width="1024" height="2" fill="#000" opacity="0.18"/>
<rect x="0" y="876" width="1024" height="2" fill="#000" opacity="0.18"/>
<rect x="0" y="880" width="1024" height="2" fill="#000" opacity="0.18"/>
<rect x="0" y="884" width="1024" height="2" fill="#000" opacity="0.18"/>
<rect x="0" y="888" width="1024" height="2" fill="#000" opacity="0.18"/>
<rect x="0" y="892" width="1024" height="2" fill="#000" opacity="0.18"/>
<rect x="0" y="896" width="1024" height="2" fill="#000" opacity="0.18"/>
<rect x="0" y="900" width="1024" height="2" fill="#000" opacity="0.18"/>
<rect x="0" y="904" width="1024" height="2" fill="#000" opacity="0.18"/>
<rect x="0" y="908" width="1024" height="2" fill="#000" opacity="0.18"/>
<rect x="0" y="912" width="1024" height="2" fill="#000" opacity="0.18"/>
<rect x="0" y="916" width="1024" height="2" fill="#000" opacity="0.18"/>
<rect x="0" y="920" width="1024" height="2" fill="#000" opacity="0.18"/>
<rect x="0" y="924" width="1024" height="2" fill="#000" opacity="0.18"/>
<rect x="0" y="928" width="1024" height="2" fill="#000" opacity="0.18"/>
<rect x="0" y="932" width="1024" height="2" fill="#000" opacity="0.18"/>
<rect x="0" y="936" width="1024" height="2" fill="#000" opacity="0.18"/>
<rect x="0" y="940" width="1024" height="2" fill="#000" opacity="0.18"/>
<rect x="0" y="944" width="1024" height="2" fill="#000" opacity="0.18"/>
<rect x="0" y="948" width="1024" height="2" fill="#000" opacity="0.18"/>
<rect x="0" y="952" width="1024" height="2" fill="#000" opacity="0.18"/>
<rect x="0" y="956" width="1024" height="2" fill="#000" opacity="0.18"/>
<rect x="0" y="960" width="1024" height="2" fill="#000" opacity="0.18"/>
<rect x="0" y="964" width="1024" height="2" fill="#000" opacity="0.18"/>
<rect x="0" y="968" width="1024" height="2" fill="#000" opacity="0.18"/>
<rect x="0" y="972" width="1024" height="2" fill="#000" opacity="0.18"/>
<rect x="0" y="976" width="1024" height="2" fill="#000" opacity="0.18"/>
<rect x="0" y="980" width="1024" height="2" fill="#000" opacity="0.18"/>
<rect x="0" y="984" width="1024" height="2" fill="#000" opacity="0.18"/>
<rect x="0" y="988" width="1024" height="2" fill="#000" opacity="0.18"/>
<rect x="0" y="992" width="1024" height="2" fill="#000" opacity="0.18"/>
<rect x="0" y="996" width="1024" height="2" fill="#000" opacity="0.18"/>
<rect x="0" y="1000" width="1024" height="2" fill="#000" opacity="0.18"/>
<rect x="0" y="1004" width="1024" height="2" fill="#000" opacity="0.18"/>
<rect x="0" y="1008" width="1024" height="2" fill="#000" opacity="0.18"/>
<rect x="0" y="1012" width="1024" height="2" fill="#000" opacity="0.18"/>
<rect x="0" y="1016" width="1024" height="2" fill="#000" opacity="0.18"/>
<rect x="0" y="1020" width="1024" height="2" fill="#000" opacity="0.18"/>

<text x="40" y="980" font-family="monospace" font-size="34" fill="#39ff14" opacity="0.9">WORM#02 · KILL-SWITCH-9999</text>
<text x="44" y="984" font-family="monospace" font-size="34" fill="#ff2bd6" opacity="0.5">WORM#02 · KILL-SWITCH-9999</text>
</svg>